<svg width="43" height="43" viewBox="0 0 43 43" fill="none" xmlns="http://www.w3.org/2000/svg">
<path fill-rule="evenodd" clip-rule="evenodd" d="M4.02906 4.10769C3.32895 3.86153 2.56185 4.22955 2.31569 4.92967C2.06954 5.6298 2.43756 6.3969 3.13769 6.64306L3.60569 6.80758C4.80181 7.22812 5.58792 7.50682 6.16634 7.79064C6.70963 8.0572 6.94912 8.27297 7.1069 8.50384C7.26861 8.74051 7.39349 9.06555 7.46396 9.71655C7.53768 10.3978 7.53951 11.285 7.53951 12.6108V17.487C7.53951 20.0894 7.56393 21.966 7.8095 23.3997C8.07166 24.9303 8.59505 26.0261 9.57373 27.0585C10.6377 28.1806 11.9865 28.6692 13.5923 28.8969C15.1299 29.115 17.0826 29.115 19.4937 29.115H29.1789C30.5078 29.115 31.6258 29.115 32.5306 29.0042C33.4904 28.8869 34.3658 28.63 35.13 28.0074C35.8941 27.3846 36.3223 26.579 36.6312 25.6628C36.9222 24.7988 37.1479 23.704 37.4161 22.4025L38.3279 17.9781L38.3297 17.9699L38.3483 17.8763C38.6434 16.3984 38.8916 15.1552 38.9534 14.1552C39.0181 13.1049 38.8986 12.0693 38.2145 11.18C37.7935 10.6328 37.2017 10.323 36.6633 10.1338C36.1141 9.94085 35.4931 9.82923 34.8666 9.75918C33.6355 9.62158 32.1402 9.62159 30.6735 9.62161H10.155C10.1491 9.55577 10.1427 9.491 10.1359 9.42734C10.0396 8.53799 9.831 7.72687 9.32579 6.98756C8.81663 6.24247 8.13965 5.76528 7.35019 5.37792C6.61186 5.01565 5.67369 4.68584 4.56907 4.29753L4.02906 4.10769ZM10.227 12.3091H30.6175C32.1519 12.3091 33.5022 12.3109 34.5679 12.43C35.0975 12.4892 35.4939 12.5715 35.7723 12.6693C35.9998 12.7493 36.0769 12.8146 36.088 12.8241C36.0878 12.8239 36.0885 12.8244 36.088 12.8241C36.198 12.9699 36.3175 13.2345 36.2709 13.9896C36.2218 14.7844 36.0131 15.8455 35.6949 17.44L35.6942 17.4439L34.8005 21.7801C34.5113 23.1826 34.3167 24.115 34.0843 24.8044C33.8638 25.4591 33.6567 25.7411 33.4322 25.924C33.2079 26.1068 32.8898 26.2528 32.2042 26.3366C31.4818 26.4251 30.5295 26.4275 29.0974 26.4275H19.5964C17.058 26.4275 15.2966 26.4242 13.9696 26.2361C12.6889 26.0544 12.0123 25.7244 11.524 25.2093C10.9504 24.6044 10.641 24.0119 10.4584 22.9461C10.2593 21.7831 10.227 20.1548 10.227 17.487V12.3091Z" fill="black"/>
<path fill-rule="evenodd" clip-rule="evenodd" d="M13.4375 38.9688C11.2111 38.9688 9.40625 37.1638 9.40625 34.9375C9.40625 32.711 11.2111 30.9062 13.4375 30.9062C15.6639 30.9062 17.4688 32.711 17.4688 34.9375C17.4688 37.1638 15.6639 38.9688 13.4375 38.9688ZM12.0938 34.9375C12.0938 35.6796 12.6954 36.2812 13.4375 36.2812C14.1796 36.2812 14.7813 35.6796 14.7813 34.9375C14.7813 34.1954 14.1796 33.5938 13.4375 33.5938C12.6954 33.5938 12.0938 34.1954 12.0938 34.9375Z" fill="black"/>
<path fill-rule="evenodd" clip-rule="evenodd" d="M29.5625 38.9688C27.3362 38.9688 25.5312 37.1638 25.5312 34.9375C25.5312 32.711 27.3362 30.9062 29.5625 30.9062C31.7888 30.9062 33.5938 32.711 33.5938 34.9375C33.5938 37.1638 31.7888 38.9688 29.5625 38.9688ZM28.2188 34.9375C28.2188 35.6796 28.8204 36.2812 29.5625 36.2812C30.3046 36.2812 30.9062 35.6796 30.9062 34.9375C30.9062 34.1954 30.3046 33.5938 29.5625 33.5938C28.8204 33.5938 28.2188 34.1954 28.2188 34.9375Z" fill="black"/>
</svg>
