<svg width="137" height="28" viewBox="0 0 137 28" fill="none" xmlns="http://www.w3.org/2000/svg">
<mask id="mask0_858_3514" style="mask-type:alpha" maskUnits="userSpaceOnUse" x="0" y="0" width="27" height="27">
<path d="M0 0H26.8206V26.8878H0V0Z" fill="#FEFEFE"/>
</mask>
<g mask="url(#mask0_858_3514)">
<path fill-rule="evenodd" clip-rule="evenodd" d="M9.42462 26.8878H-0.0673828L26.8205 0V9.51888L9.42462 26.8878Z" fill="#FEFEFE"/>
</g>
<path fill-rule="evenodd" clip-rule="evenodd" d="M53.7093 13.4434C53.7093 15.3082 53.3587 17.0565 52.6598 18.6872C51.961 20.319 51.0022 21.7392 49.7837 22.9488C48.564 24.1595 47.1394 25.1182 45.5086 25.8261C43.8768 26.5339 42.1296 26.8878 40.2648 26.8878C39.0283 26.8878 37.8355 26.7266 36.6886 26.404C35.5406 26.0814 34.471 25.629 33.4754 25.0466C32.4808 24.4642 31.5747 23.7653 30.7605 22.9488C29.944 22.1334 29.2451 21.2285 28.6627 20.2328C28.0803 19.2382 27.6278 18.1675 27.3053 17.0195C26.9816 15.8738 26.8203 14.681 26.8203 13.4434H33.5426C33.5426 14.3584 33.7218 15.223 34.0802 16.0384C34.4386 16.8549 34.9224 17.5672 35.5328 18.1765C36.1421 18.7858 36.8544 19.2696 37.6698 19.628C38.4862 19.9875 39.3509 20.1656 40.2648 20.1656C41.1966 20.1656 42.0702 19.9875 42.8867 19.628C43.7021 19.2696 44.4144 18.7858 45.0237 18.1765C45.6329 17.5672 46.1134 16.8549 46.4629 16.0384C46.8123 15.223 46.987 14.3584 46.987 13.4434H53.7093Z" fill="#FEFEFE"/>
<path fill-rule="evenodd" clip-rule="evenodd" d="M71.6954 10.311L69.9135 6.47725L68.2547 10.311H71.6954ZM69.9012 4.41309L74.1415 13.4448H73.1447L72.0885 11.1712H67.8863L66.9029 13.4448H65.9072L69.9012 4.41309Z" fill="#FEFEFE"/>
<path fill-rule="evenodd" clip-rule="evenodd" d="M80.3653 10.311L78.5834 6.47725L76.9235 10.311H80.3653ZM78.5711 4.41309L82.8103 13.4448H81.8146L80.7584 11.1712H76.5551L75.5717 13.4448H74.5771L78.5711 4.41309Z" fill="#FEFEFE"/>
<path fill-rule="evenodd" clip-rule="evenodd" d="M86.6206 8.95892C86.9241 8.95892 87.194 8.91636 87.4315 8.83012C87.6689 8.74388 87.866 8.6274 88.0217 8.47956C88.1774 8.33284 88.2961 8.16036 88.3779 7.96324C88.4596 7.76724 88.5011 7.5578 88.5011 7.33716C88.5011 7.1154 88.4596 6.90484 88.3779 6.70436C88.2961 6.50388 88.1774 6.32916 88.0217 6.18244C87.866 6.0346 87.6689 5.917 87.4315 5.83188C87.194 5.74564 86.9241 5.70196 86.6206 5.70196H84.618V8.95892H86.6206ZM83.6963 4.8418H86.6822C87.1078 4.8418 87.4909 4.90788 87.8313 5.03892C88.1707 5.16996 88.4574 5.34804 88.6915 5.57316C88.9244 5.79828 89.1048 6.06372 89.2325 6.36612C89.359 6.66964 89.4228 6.99332 89.4228 7.33716C89.4228 7.65636 89.3691 7.95764 89.2627 8.23988C89.1563 8.52212 89.0006 8.773 88.7957 8.98916C88.5907 9.20644 88.3432 9.38676 88.052 9.53012C87.7619 9.67348 87.4315 9.76644 87.063 9.80676L89.5449 13.4445H88.4272L85.9699 9.81908H84.618V13.4445H83.6963V4.8418Z" fill="#FEFEFE"/>
<path fill-rule="evenodd" clip-rule="evenodd" d="M90.9141 4.8418H91.8358V8.52884H96.383V4.8418H97.3048V13.4445H96.383V9.389H91.8358V13.4445H90.9141V4.8418Z" fill="#FEFEFE"/>
<path fill-rule="evenodd" clip-rule="evenodd" d="M99.1436 4.8418H100.078V10.3354C100.078 10.7946 100.144 11.1799 100.275 11.4901C100.406 11.8026 100.576 12.0512 100.784 12.2405C100.994 12.4287 101.231 12.5642 101.497 12.646C101.763 12.7277 102.032 12.768 102.302 12.768C102.572 12.768 102.841 12.7277 103.107 12.646C103.374 12.5642 103.611 12.4287 103.82 12.2405C104.029 12.0512 104.198 11.8026 104.33 11.4901C104.46 11.1799 104.526 10.7946 104.526 10.3354V4.8418H105.46V10.4709C105.46 10.9951 105.37 11.4543 105.19 11.8474C105.01 12.2405 104.77 12.5698 104.471 12.8364C104.172 13.1029 103.834 13.3012 103.457 13.4322C103.08 13.5632 102.695 13.6282 102.302 13.6282C101.909 13.6282 101.524 13.5632 101.147 13.4322C100.77 13.3012 100.433 13.1029 100.134 12.8364C99.8346 12.5698 99.5949 12.2405 99.4146 11.8474C99.2343 11.4543 99.1436 10.9951 99.1436 10.4709V4.8418Z" fill="#FEFEFE"/>
<path fill-rule="evenodd" clip-rule="evenodd" d="M107.698 10.9246C107.698 11.1878 107.741 11.432 107.827 11.656C107.913 11.8822 108.034 12.076 108.19 12.2406C108.345 12.4041 108.531 12.5329 108.749 12.627C108.966 12.7211 109.21 12.7681 109.48 12.7681C109.75 12.7681 109.997 12.7256 110.224 12.6393C110.448 12.5542 110.643 12.4332 110.807 12.2776C110.971 12.1219 111.097 11.9393 111.188 11.7299C111.278 11.5216 111.324 11.2942 111.324 11.0478C111.324 10.8193 111.274 10.6188 111.176 10.4464C111.077 10.2739 110.946 10.1249 110.783 9.99724C110.618 9.87068 110.429 9.75644 110.211 9.6534C109.994 9.55148 109.771 9.45516 109.542 9.36444C109.221 9.24236 108.914 9.11692 108.62 8.98924C108.325 8.86268 108.064 8.70924 107.839 8.52892C107.614 8.3486 107.432 8.13356 107.293 7.8838C107.153 7.63404 107.083 7.31708 107.083 6.9318C107.083 6.61148 107.143 6.31244 107.261 6.03468C107.38 5.7558 107.545 5.51388 107.753 5.30892C107.962 5.10508 108.213 4.94492 108.509 4.83068C108.804 4.71532 109.127 4.6582 109.48 4.6582C109.841 4.6582 110.17 4.7198 110.469 4.84188C110.768 4.96508 111.025 5.13308 111.237 5.347C111.45 5.55868 111.614 5.8118 111.729 6.10188C111.843 6.39308 111.9 6.71004 111.9 7.05388H110.955C110.955 6.58684 110.817 6.215 110.543 5.93612C110.269 5.65724 109.915 5.51836 109.48 5.51836C109.045 5.51836 108.692 5.64716 108.417 5.90588C108.143 6.16348 108.005 6.5062 108.005 6.9318C108.005 7.1614 108.059 7.35516 108.165 7.51532C108.272 7.67548 108.41 7.81436 108.583 7.93308C108.754 8.0518 108.954 8.1582 109.179 8.25228C109.404 8.34636 109.639 8.44268 109.885 8.54124C110.197 8.66444 110.494 8.791 110.776 8.92204C111.059 9.05308 111.309 9.211 111.526 9.3958C111.742 9.57948 111.917 9.80348 112.048 10.0644C112.179 10.3276 112.245 10.6547 112.245 11.0478C112.245 11.4331 112.174 11.7836 112.03 12.0984C111.886 12.4142 111.69 12.6875 111.44 12.916C111.19 13.1456 110.897 13.3214 110.561 13.4446C110.225 13.5678 109.865 13.6283 109.48 13.6283C109.095 13.6283 108.739 13.5611 108.41 13.4256C108.083 13.2912 107.798 13.103 107.556 12.8611C107.315 12.6192 107.125 12.3347 106.985 12.0065C106.846 11.6795 106.776 11.3188 106.776 10.9246H107.698Z" fill="#FEFEFE"/>
<path fill-rule="evenodd" clip-rule="evenodd" d="M66.7432 18.2002H67.6772V23.6927C67.6772 24.1519 67.7433 24.5372 67.8732 24.8485C68.0054 25.1599 68.1745 25.4096 68.384 25.5978C68.5923 25.786 68.8297 25.9215 69.0963 26.0032C69.3628 26.085 69.6316 26.1264 69.9016 26.1264C70.1715 26.1264 70.4403 26.085 70.7068 26.0032C70.9723 25.9215 71.2097 25.786 71.4192 25.5978C71.6275 25.4096 71.7977 25.1599 71.9299 24.8485C72.0598 24.5372 72.1259 24.1519 72.1259 23.6927V18.2002H73.06V23.8282C73.06 24.3524 72.9693 24.8116 72.7889 25.2047C72.6086 25.5978 72.3689 25.9271 72.0699 26.1936C71.7708 26.4602 71.4337 26.6584 71.0563 26.7895C70.68 26.9205 70.2947 26.9866 69.9016 26.9866C69.5084 26.9866 69.1232 26.9205 68.7468 26.7895C68.3694 26.6584 68.0323 26.4602 67.7321 26.1936C67.4331 25.9271 67.1934 25.5978 67.0131 25.2047C66.8339 24.8116 66.7432 24.3524 66.7432 23.8282V18.2002Z" fill="#FEFEFE"/>
<path fill-rule="evenodd" clip-rule="evenodd" d="M75.0166 17.8916L81.0254 24.7863V18.1996H81.9472V27.1092L75.9384 20.2391V26.8012H75.0166V17.8916Z" fill="#FEFEFE"/>
<mask id="mask1_858_3514" style="mask-type:alpha" maskUnits="userSpaceOnUse" x="83" y="18" width="11" height="10">
<path d="M83.8818 18.2002H93.4886V27.1647H83.8818V18.2002Z" fill="#FEFEFE"/>
</mask>
<g mask="url(#mask1_858_3514)">
<path fill-rule="evenodd" clip-rule="evenodd" d="M83.9805 26.8029H84.9022V18.2002H83.9805V26.8029Z" fill="#FEFEFE"/>
<path fill-rule="evenodd" clip-rule="evenodd" d="M85.9922 18.2002H86.9991L89.8506 24.9706L92.505 18.2002H93.4884L89.8629 27.2319L85.9922 18.2002Z" fill="#FEFEFE"/>
</g>
<path fill-rule="evenodd" clip-rule="evenodd" d="M94.541 18.2002H99.702V19.0604H95.4628V21.8872H99.3335V22.7474H95.4628V25.9416H99.702V26.8018H94.541V18.2002Z" fill="#FEFEFE"/>
<path fill-rule="evenodd" clip-rule="evenodd" d="M104.131 22.3162C104.435 22.3162 104.705 22.2736 104.942 22.1874C105.18 22.1023 105.377 21.9847 105.532 21.838C105.688 21.6901 105.807 21.5176 105.889 21.3216C105.97 21.1245 106.012 20.9151 106.012 20.6944C106.012 20.4727 105.97 20.2621 105.889 20.0616C105.807 19.8612 105.688 19.6864 105.532 19.5397C105.377 19.3919 105.18 19.2754 104.942 19.1892C104.705 19.1029 104.435 19.0604 104.131 19.0604H102.129V22.3162H104.131ZM101.207 18.2002H104.193C104.619 18.2002 105.003 18.2652 105.342 18.3962C105.683 18.5284 105.968 18.7053 106.202 18.9304C106.436 19.1567 106.617 19.421 106.743 19.7234C106.87 20.0269 106.934 20.3506 106.934 20.6944C106.934 21.0136 106.881 21.3149 106.773 21.5972C106.667 21.8805 106.511 22.1303 106.306 22.3476C106.103 22.5648 105.854 22.7452 105.564 22.8885C105.273 23.0319 104.942 23.1237 104.574 23.1652L107.057 26.8018H105.938L103.481 23.1764H102.129V26.8018H101.207V18.2002Z" fill="#FEFEFE"/>
<path fill-rule="evenodd" clip-rule="evenodd" d="M108.929 24.2831C108.929 24.5452 108.971 24.7894 109.057 25.0145C109.144 25.2396 109.265 25.4345 109.42 25.598C109.576 25.7627 109.762 25.8915 109.979 25.9855C110.196 26.0796 110.441 26.1267 110.711 26.1267C110.98 26.1267 111.228 26.083 111.454 25.9967C111.679 25.9116 111.874 25.7907 112.038 25.635C112.201 25.4793 112.328 25.2967 112.419 25.0873C112.508 24.879 112.554 24.6516 112.554 24.4063C112.554 24.1767 112.505 23.9763 112.406 23.8038C112.308 23.6313 112.177 23.4823 112.013 23.3558C111.85 23.2281 111.659 23.1139 111.442 23.0119C111.225 22.9089 111.002 22.8126 110.772 22.723C110.452 22.5998 110.145 22.4743 109.85 22.3478C109.556 22.2201 109.295 22.0667 109.07 21.8875C108.845 21.706 108.662 21.4921 108.523 21.2412C108.383 20.9915 108.314 20.6745 108.314 20.2892C108.314 19.97 108.374 19.671 108.492 19.3921C108.611 19.1132 108.775 18.8724 108.983 18.6675C109.193 18.4625 109.445 18.3023 109.739 18.1881C110.034 18.0727 110.358 18.0156 110.711 18.0156C111.071 18.0156 111.4 18.0772 111.699 18.2004C111.999 18.3236 112.255 18.4905 112.468 18.7044C112.681 18.9172 112.844 19.1692 112.959 19.4604C113.074 19.7505 113.132 20.0686 113.132 20.4124H112.186C112.186 19.9454 112.048 19.5724 111.773 19.2935C111.499 19.0158 111.145 18.8758 110.711 18.8758C110.276 18.8758 109.922 19.0046 109.648 19.2633C109.373 19.5209 109.235 19.8636 109.235 20.2892C109.235 20.5188 109.289 20.7137 109.396 20.8727C109.502 21.0329 109.641 21.1718 109.813 21.2905C109.985 21.4092 110.184 21.5167 110.409 21.6097C110.634 21.7038 110.87 21.8001 111.116 21.8987C111.427 22.0219 111.724 22.1484 112.007 22.2806C112.29 22.4105 112.539 22.5684 112.757 22.7532C112.973 22.938 113.148 23.1609 113.279 23.423C113.41 23.6851 113.476 24.0121 113.476 24.4063C113.476 24.7905 113.404 25.1411 113.261 25.4569C113.116 25.7716 112.92 26.0449 112.671 26.2745C112.421 26.503 112.128 26.6788 111.791 26.802C111.455 26.9252 111.096 26.9868 110.711 26.9868C110.325 26.9868 109.969 26.9185 109.641 26.7841C109.314 26.6486 109.029 26.4604 108.787 26.2185C108.546 25.9766 108.355 25.6921 108.215 25.3651C108.076 25.0369 108.007 24.6763 108.007 24.2831H108.929Z" fill="#FEFEFE"/>
<path fill-rule="evenodd" clip-rule="evenodd" d="M115.073 26.8029H115.995V18.2002H115.073V26.8029Z" fill="#FEFEFE"/>
<path fill-rule="evenodd" clip-rule="evenodd" d="M119.604 19.0604H117.085V18.2002H123.044V19.0604H120.526V26.8018H119.604V19.0604Z" fill="#FEFEFE"/>
<path fill-rule="evenodd" clip-rule="evenodd" d="M126.622 22.7832L123.673 18.2002H124.754L127.089 21.9354L129.424 18.2002H130.505L127.544 22.8079V26.8018H126.622V22.7832Z" fill="#FEFEFE"/>
</svg>
