<svg width="45" height="45" viewBox="0 0 45 45" fill="none" xmlns="http://www.w3.org/2000/svg">
<g clip-path="url(#clip0_858_3520)">
<path fill-rule="evenodd" clip-rule="evenodd" d="M38.1338 29.5623L38.075 29.7121C35.9051 35.5784 29.2312 40.009 22.5462 40.0211H22.5279H22.5143H22.4946C15.8122 40.009 9.13954 35.5784 6.96831 29.7121L6.91191 29.5623C6.82113 29.5623 6.21907 29.5586 5.95464 29.5623H5.93627V29.5426V23.9106V23.8923H5.9542H6.04864H6.14917H6.16588L6.16649 23.9094C6.58368 27.4207 8.39822 30.7283 11.2773 33.2221C14.1038 35.6692 17.6997 37.1666 21.4048 37.4439L21.6453 37.4635V30.0434V30.0312L21.6564 30.0262C22.2505 29.7464 22.8274 29.4581 23.3661 29.1658L23.3943 29.15V29.1794V37.4635L23.6397 37.4439C27.3462 37.1666 30.942 35.6692 33.7672 33.2221C36.6488 30.7283 38.4604 27.422 38.8752 23.9094L38.8776 23.8923H38.8948H38.9954H39.0862H39.1059V23.9106V29.5426V29.5623H39.0862C38.8237 29.5586 38.2248 29.5623 38.1338 29.5623ZM14.0105 31.9947C13.9665 31.9997 13.937 31.9826 13.9283 31.9777L13.9186 31.9702L13.9221 31.9604C13.9541 31.7542 14.4401 31.3148 14.7617 31.0228C15.2918 30.543 15.7141 30.1661 15.7141 29.8004C15.7141 29.7684 15.709 29.7343 15.7017 29.7022C15.6588 29.506 15.6356 29.307 15.6356 29.118C15.6356 28.7696 15.7079 28.5044 15.7679 28.345C16.6896 25.91 20.6807 24.6312 22.6616 24.2924L22.7708 24.2753L22.8235 24.1794C23.3391 23.2419 24.1504 22.5706 24.9946 22.3803L25.0265 22.373L25.0168 22.4035L24.8745 22.7951H24.8768C24.8155 22.9153 24.7592 23.1302 24.7592 23.3301C24.7592 23.4235 24.7737 23.5021 24.7982 23.5695C24.8646 23.7377 25.0095 23.8347 25.1984 23.8347H25.2081L25.4487 23.8138C28.2765 23.4775 31.3544 24.1206 33.885 25.5761L34.0568 25.6743L34.1796 25.5198C34.5699 25.0177 35.4215 24.9147 35.8635 24.9342L35.9051 24.9355L35.8756 24.9637C35.6229 25.2227 35.4314 25.4903 35.3258 25.7381C35.1737 26.0818 34.7809 26.1406 34.7662 26.1432L34.4201 26.1923C34.4644 26.2659 34.6017 26.4867 34.6017 26.4867C34.6508 26.5702 34.7834 26.8329 34.7834 27.0514C34.7834 27.1029 34.776 27.1494 34.7638 27.1888C34.6706 27.4489 34.6042 27.7423 34.5723 28.0639L34.5699 28.0957L34.5428 28.0773C34.1748 27.7913 33.7354 27.3359 33.7354 26.8083V26.7556L33.7475 26.5837L33.5807 26.5298C29.9676 25.3257 26.6834 26.7543 23.6754 28.4749C21.3166 29.8251 17.3708 31.5553 14.0105 31.9947ZM21.1815 21.2709C20.3236 21.5825 19.4965 21.9631 18.7207 22.3988C17.8544 22.8871 13.3404 25.3491 9.68189 25.8265C9.63767 25.8339 9.61078 25.8167 9.59842 25.8105L9.58858 25.8032L9.59111 25.7921C9.62549 25.5823 10.1114 25.1466 10.4318 24.8544C10.9632 24.3782 11.383 23.9979 11.383 23.6321C11.383 23.6002 11.3781 23.5659 11.3719 23.5316C11.3277 23.3376 11.3056 23.1412 11.3056 22.9497C11.3056 22.6037 11.3781 22.3386 11.4381 22.1766C12.3636 19.7343 15.5078 18.9181 17.5881 18.3794L18.063 18.2542C18.0752 18.2321 18.1096 18.1658 18.1096 18.1658L18.1563 18.0763L18.1623 18.0628C18.4435 17.3251 19.1308 16.6097 19.802 16.363L19.8327 16.3495L19.8254 16.3839C19.7321 16.752 19.6879 17.0442 19.6879 17.2772C19.6879 17.4921 19.7272 17.6492 19.8032 17.7449C19.8818 17.8419 19.9946 17.8909 20.1223 17.8799L20.4169 17.8616L20.7187 17.8259C20.8563 17.8087 21.0182 17.789 21.1728 17.7755L21.1937 17.7745V17.7952V21.2537V21.2659L21.1815 21.2709ZM21.6466 19.5576V8.37702V8.35987H21.665H22.5095H23.3795H23.398V8.37954V22.7338V22.7411V22.7423L23.3919 22.7461C23.0397 23.0578 22.7353 23.432 22.4848 23.858L22.4824 23.8654L22.4751 23.8677C22.3363 23.8923 22.0504 23.95 21.6737 24.0433L21.6466 24.0628V24.0495V24.0273V19.5576ZM21.1925 7.90578V8.76357V8.82511L21.1593 8.77218C20.9986 8.5182 20.914 8.22235 20.914 7.91814C20.914 7.03433 21.6319 6.32008 22.5143 6.32008C23.3968 6.32008 24.1159 7.03433 24.1159 7.91814C24.1159 8.21016 24.0374 8.49618 23.8852 8.74398L23.852 8.79925V8.73545V7.90831L21.1925 7.90578ZM21.1937 13.9279V13.9464H21.1754H14.612H12.426H12.4077V13.9279V12.7891V12.7694H12.426H15.1175H21.1754H21.1937V12.7891V13.9096V13.9279ZM21.1937 9.4988V10.6328V10.6599L21.1656 10.6488C20.6623 10.3971 20.2353 10.0118 19.9359 9.53083C19.6315 9.04471 19.472 8.48869 19.472 7.92049C19.472 6.24165 20.8392 4.87564 22.5168 4.87564C24.197 4.87564 25.5642 6.24165 25.5642 7.92049C25.5642 8.48504 25.4046 9.03983 25.1026 9.52465C24.8032 10.0044 24.3811 10.3923 23.8779 10.6426L23.852 10.6574V10.6279V9.48409V9.47547L23.857 9.46929C24.3098 9.07909 24.5676 8.51454 24.5676 7.91814C24.5676 6.78653 23.6459 5.86616 22.5143 5.86616C21.3828 5.86616 20.4611 6.78653 20.4611 7.91814C20.4611 8.52438 20.7262 9.0938 21.1876 9.48531L21.1937 9.49027V9.4988ZM23.868 12.7694H29.9086H32.5915H32.6112V12.7891V13.9279V13.9464H32.5915L30.2817 13.9453L23.868 13.9464H23.852V13.9279V13.9243V12.7903V12.7891V12.7694H23.868ZM23.8706 17.8885C25.5101 18.0922 27.0589 18.6088 28.6052 19.4668L28.7991 19.5772L28.9121 19.3809C29.2214 18.8383 30.0706 18.6297 30.5248 18.5953L30.5641 18.5904L30.5395 18.6247C30.3137 18.9144 30.1542 19.2115 30.0781 19.4802C29.975 19.841 29.6755 19.9344 29.6634 19.938L29.3489 20.0337C29.3981 20.0976 29.5454 20.2964 29.5454 20.2964C29.5504 20.3039 29.7197 20.5308 29.7197 20.78C29.7197 20.8167 29.7148 20.8499 29.7099 20.8842C29.6706 21.0782 29.6509 21.2892 29.6509 21.509C29.6509 21.585 29.6534 21.6659 29.6582 21.7532L29.6608 21.7875L29.6313 21.7704C29.219 21.5309 28.7182 21.1309 28.6667 20.5897L28.6543 20.424L28.4875 20.3885C27.8468 20.2535 26.0305 20.1785 23.8706 20.5517L23.852 20.5565V20.5345V17.9081V17.8859L23.8706 17.8885ZM39.555 30.0176L39.56 23.4383L38.4726 23.4408L38.4529 23.6444C38.102 27.1225 36.3297 30.4018 33.4703 32.8784C30.7972 35.1955 27.3853 36.6463 23.8706 36.9677H23.8509V36.948L23.8458 28.9106V28.8995L23.857 28.8948L23.8753 28.8823L23.8988 28.8677C26.7644 27.2305 29.8842 25.8596 33.2788 26.9127L33.2885 26.9164L33.291 26.9286C33.3818 27.978 34.6092 28.6773 34.6607 28.7081L35.0067 28.9021L34.9994 28.5044V28.4921C34.9994 28.3891 35.0093 27.8453 35.1884 27.341C35.2203 27.2527 35.2375 27.1557 35.2375 27.0514C35.2375 26.887 35.1983 26.71 35.1246 26.5236L35.1173 26.5076L35.1344 26.5003C35.4215 26.3762 35.6253 26.1787 35.7406 25.9149C35.9517 25.4264 36.5188 24.9968 36.5237 24.9933L36.8108 24.7809L36.4968 24.6115C35.9935 24.3439 34.6312 24.4519 33.9612 25.0888L33.9537 25.0987L33.9392 25.0901C31.3568 23.6567 28.2444 23.0259 25.4021 23.3609L25.2327 23.3768L25.2156 23.378L25.2131 23.3596V23.3547C25.2106 23.3511 25.2106 23.3462 25.2106 23.34C25.2106 23.2665 25.2327 23.1584 25.2549 23.0824L25.3014 22.9487L25.6868 21.871L25.3579 21.8772C24.8915 21.8894 24.3687 22.0648 23.8804 22.3779L23.852 22.395V22.3631V21.0303V21.0156L23.8654 21.0131C25.6795 20.6903 27.4026 20.6793 28.2323 20.8045L28.2444 20.8058L28.247 20.818C28.4826 21.8452 29.8031 22.3681 29.862 22.3901L30.2572 22.5424C30.2351 22.4405 30.164 22.1275 30.164 22.1275C30.164 22.1275 30.1025 21.8623 30.1025 21.5077C30.1025 21.3175 30.1222 21.1382 30.1542 20.9737C30.1664 20.9124 30.1739 20.8486 30.1739 20.7849C30.1739 20.6155 30.1296 20.4412 30.0486 20.2646L30.0436 20.2509L30.0559 20.2424C30.2842 20.089 30.4389 19.8741 30.515 19.6054C30.6646 19.074 31.1825 18.5758 31.19 18.5708L31.4575 18.3191C31.3717 18.2886 31.1113 18.1929 31.1113 18.1929C30.6303 18.0186 29.2607 18.2247 28.6543 18.9659L28.6446 18.9757L28.6323 18.9685C27.0737 18.1316 25.5125 17.6283 23.8654 17.4307L23.852 17.4294V17.4147V14.4129V14.3957H23.868L33.0627 14.3994V12.3166L23.868 12.3192H23.852V12.3008V11.1655V11.1532L23.8618 11.1507C24.4988 10.8844 25.039 10.4388 25.4242 9.86211C25.812 9.28285 26.0157 8.6102 26.0157 7.92049C26.0157 5.99132 24.4473 4.42285 22.5168 4.42285C20.5889 4.42285 19.0191 5.99132 19.0191 7.92049C19.0191 8.61273 19.224 9.28651 19.6118 9.86707C19.9997 10.4463 20.5433 10.8894 21.1815 11.1532L21.1937 11.1568V11.1691V12.2995V12.3179H21.1754L11.9548 12.3166V14.3994L21.1754 14.4005H21.1937V14.4177V17.303V17.3191L21.1766 17.3214C21.006 17.3338 20.8366 17.3558 20.6623 17.3755L20.3753 17.4098H20.3654L20.1642 17.4233L20.147 17.4245L20.1445 17.4085C20.1395 17.3803 20.1371 17.3459 20.1371 17.3116C20.1371 17.0514 20.2328 16.5606 20.3703 16.115L20.4684 15.7948L20.1335 15.8218C19.2412 15.8991 18.1735 16.8109 17.7561 17.859L17.7537 17.8663L17.7439 17.8688L17.4739 17.94C15.3017 18.5022 12.0235 19.3538 11.0147 22.0169C10.9387 22.2134 10.8515 22.535 10.8515 22.9523C10.8515 23.1744 10.8774 23.4015 10.9288 23.6272V23.6296V23.6321C10.9288 23.7843 10.5164 24.1696 10.1286 24.5194C9.61078 24.9846 9.16522 25.3871 9.13449 25.7701C9.13449 25.7822 9.13336 25.7946 9.13336 25.8068C9.13336 25.9296 9.18358 26.045 9.27689 26.1333C9.39466 26.245 9.56891 26.3002 9.74082 26.2782C13.4829 25.7871 18.063 23.2908 18.9441 22.7951C19.6339 22.4048 20.4048 22.0464 21.1681 21.7593L21.1925 21.7495V21.7752V24.1574V24.1696L21.179 24.1734C19.3786 24.6741 16.2233 25.8621 15.3434 28.1842C15.2722 28.3804 15.1814 28.7008 15.1814 29.118C15.1814 29.3415 15.2083 29.5672 15.2575 29.7955L15.26 29.7992C15.2575 29.9514 14.8451 30.3379 14.4573 30.6865C13.9406 31.1529 13.4951 31.5553 13.4655 31.9383C13.4645 31.9505 13.4632 31.9629 13.4632 31.9727C13.4632 32.0979 13.5147 32.2133 13.6055 32.2991C13.7258 32.4145 13.8989 32.4661 14.0694 32.4465C17.2125 32.0366 19.7518 30.8878 21.1189 30.2742L21.1656 30.252L21.1913 30.2398V30.268L21.195 36.948V36.9677H21.1754C17.6605 36.6463 14.251 35.1955 11.5743 32.8784C8.71487 30.4018 6.94385 27.1225 6.59047 23.6444L6.56958 23.4408L5.4834 23.4383V30.0312C5.60795 30.0312 6.37374 30.0262 6.58916 30.0251H6.60204L6.60631 30.0385C7.71895 32.9226 9.94205 35.5662 12.8679 37.4881C15.7975 39.4076 19.224 40.4679 22.5143 40.4728H22.5193H22.5204L22.5315 40.4753C25.8218 40.4728 29.2484 39.41 32.1741 37.4857C35.1001 35.5637 37.3264 32.9152 38.4384 30.0312L38.4407 30.0176H38.4529H39.555Z" fill="#FEFEFE"/>
<path fill-rule="evenodd" clip-rule="evenodd" d="M12.6396 23.0383C12.5096 23.0458 12.4519 23.1659 12.3943 23.2801C12.3599 23.3549 12.3158 23.4385 12.2568 23.5109C12.2568 23.5109 12.3783 23.6127 12.4287 23.6543C12.4359 23.6851 12.4482 23.7306 12.4482 23.7306C12.922 23.6251 12.9662 23.517 12.9857 23.4752C13.0066 23.4273 13.0029 23.3721 12.9735 23.3256C12.8605 23.1438 12.7673 23.0321 12.6396 23.0383Z" fill="#FEFEFE"/>
<path fill-rule="evenodd" clip-rule="evenodd" d="M16.9639 29.217C16.8339 29.2231 16.775 29.3434 16.7186 29.4588C16.6829 29.5335 16.6424 29.6183 16.5811 29.6907C16.5811 29.6907 16.7026 29.7913 16.7541 29.8342C16.7603 29.8637 16.7701 29.9092 16.7701 29.9092C17.2462 29.8048 17.2928 29.6956 17.3101 29.655C17.3297 29.6046 17.3261 29.5483 17.2953 29.503C17.1849 29.3225 17.0915 29.212 16.9639 29.217Z" fill="#FEFEFE"/>
<path fill-rule="evenodd" clip-rule="evenodd" d="M1.21582 24.0535C1.21582 24.2328 1.36187 24.3786 1.54048 24.3786C1.72031 24.3786 1.86627 24.2328 1.86627 24.0535C1.86627 23.8743 1.72031 23.7295 1.54048 23.7295C1.36187 23.7295 1.21582 23.8743 1.21582 24.0535Z" fill="#FEFEFE"/>
<path fill-rule="evenodd" clip-rule="evenodd" d="M43.8067 24.0546C43.8067 23.8755 43.6595 23.7295 43.4803 23.7295C43.3011 23.7295 43.1562 23.8755 43.1562 24.0546C43.1562 24.2327 43.3011 24.3786 43.4803 24.3786C43.6595 24.3786 43.8067 24.2327 43.8067 24.0546Z" fill="#FEFEFE"/>
<path fill-rule="evenodd" clip-rule="evenodd" d="M1.67767 22.0885C1.67767 22.0885 1.87212 21.7559 1.87212 21.7546L1.87647 21.751C1.99554 21.5338 2.11888 21.3091 2.38096 21.3202C2.59621 21.33 2.84227 21.4969 2.8233 21.9388C2.80554 22.3278 2.64904 22.4395 2.50978 22.5352L2.50247 22.5426L2.4478 22.5806L2.51343 22.5917C2.7964 22.6357 2.84854 22.6505 3.00809 22.7095L3.03132 22.7193L3.04247 22.696C3.1148 22.5352 3.14369 22.4591 3.17555 22.2382C3.18791 22.1499 3.19644 22.0614 3.2001 21.9707C3.22099 21.4601 3.04351 21.1902 2.93749 21.0748C2.77734 20.9029 2.55095 20.8022 2.29505 20.7912C1.82068 20.7728 1.63415 21.1115 1.45241 21.443L1.45006 21.4478L1.34622 21.6393C1.24264 21.8235 1.12235 22.0321 0.855396 22.0211C0.632659 22.0099 0.401305 21.8307 0.419062 21.4552C0.433249 21.1017 0.629613 20.9458 0.721702 20.871L0.776189 20.8292L0.708124 20.8244C0.473114 20.8048 0.409226 20.7974 0.195715 20.7323L0.166905 20.7236L0.161421 20.7531C0.153327 20.8022 0.146711 20.8244 0.12765 20.9127L0.103104 21.0244C0.0828236 21.1079 0.0392163 21.281 0.0337327 21.411C0.0189358 21.7559 0.113549 22.0565 0.300686 22.2603C0.458317 22.4296 0.670696 22.5253 0.919284 22.5352C1.37085 22.5548 1.55625 22.2737 1.67767 22.0885Z" fill="#FEFEFE"/>
<path fill-rule="evenodd" clip-rule="evenodd" d="M0.712131 18.6102C0.744684 18.4348 0.858098 18.1229 1.25883 17.9966C1.52883 17.9131 1.85967 17.945 2.08972 17.9868C2.42727 18.0481 2.69048 18.1513 2.86908 18.2949C2.97397 18.3794 3.05857 18.4826 3.11454 18.5905C3.17886 18.7305 3.19914 18.8899 3.17094 19.0508C3.10601 19.4103 2.84332 19.5724 2.69109 19.6337C2.47322 19.7246 2.17328 19.7345 1.79831 19.6681C1.21653 19.5639 0.860709 19.3392 0.738504 18.998C0.696725 18.8754 0.688195 18.7427 0.712131 18.6102ZM1.69395 20.1982C2.19713 20.2915 2.61684 20.2302 2.94142 20.0216C3.1108 19.9135 3.24954 19.7614 3.34711 19.5835C3.42258 19.4459 3.47593 19.2902 3.50596 19.1219C3.58578 18.6814 3.50291 18.3083 3.25807 18.0163C3.02184 17.7303 2.65366 17.54 2.1658 17.4492C1.69395 17.3657 1.30061 17.41 0.998059 17.5793C0.673485 17.7671 0.449529 18.1082 0.37215 18.5439C0.296686 18.9575 0.377721 19.3293 0.605941 19.6215C0.834858 19.9161 1.19991 20.11 1.69395 20.1982Z" fill="#FEFEFE"/>
<path fill-rule="evenodd" clip-rule="evenodd" d="M1.35657 16.3912C1.54562 16.4403 1.73894 16.4993 2.00397 16.5852L2.74774 16.8306C3.03671 16.9239 3.42021 17.0564 3.603 17.1522C3.71476 17.2061 3.76211 17.2516 3.82835 17.3141L3.86142 17.3461L3.87361 17.3019C3.94176 17.0393 3.96892 16.9411 4.12907 16.4526C4.28052 15.9936 4.3156 15.9028 4.41317 15.6622L4.42301 15.6364L4.39837 15.6266C4.19461 15.5383 4.13212 15.5076 3.91913 15.391L3.8461 15.3506L3.8824 15.4267C3.94733 15.5653 4.00861 15.6941 3.85777 16.1531C3.78709 16.369 3.7252 16.4846 3.66018 16.6048C3.36381 16.5288 3.1429 16.4673 2.57896 16.2832C1.36449 15.8856 1.23262 15.7629 1.15411 15.6893L1.14549 15.6819L1.10989 15.6488L1.10067 15.6967C1.08169 15.7923 1.06272 15.8978 1.0252 16.0083C0.992649 16.1089 0.922756 16.2661 0.904912 16.2943L0.87793 16.3372L0.928848 16.3348C1.04661 16.3323 1.1246 16.3323 1.35657 16.3912Z" fill="#FEFEFE"/>
<path fill-rule="evenodd" clip-rule="evenodd" d="M2.07711 14.021C2.19923 14.0554 2.26425 14.0799 2.87171 14.3254L3.1693 14.4555C3.50675 14.6015 3.78781 14.7254 4.13963 14.8973C4.45489 15.052 4.5126 15.1133 4.58388 15.1906L4.61879 15.2274L4.63045 15.1795C4.66231 15.0569 4.69181 14.961 4.72872 14.8777C4.77337 14.7734 4.83491 14.674 4.88147 14.6015L4.90837 14.5586H4.85815C4.68938 14.5622 4.63175 14.5513 4.33895 14.4383C3.98861 14.2985 3.72888 14.1904 3.34912 14.0259L3.05223 13.8983C2.3029 13.5596 2.22804 13.5252 2.0483 13.3361L2.01566 13.3018L2.00348 13.3483C1.97031 13.4614 1.9415 13.5546 1.90094 13.6478C1.85986 13.7437 1.8052 13.8371 1.75115 13.9265L1.72852 13.9669L1.77456 13.9695C1.85429 13.9695 1.90712 13.9695 2.07711 14.021Z" fill="#FEFEFE"/>
<path fill-rule="evenodd" clip-rule="evenodd" d="M3.10858 11.9884L3.1252 11.9503C3.16925 11.8461 3.23679 11.6902 3.31539 11.5565C3.44908 11.3281 3.62847 11.1662 3.83389 11.0899C4.20947 10.9549 4.57156 11.122 4.84574 11.2815C5.3208 11.5637 5.55938 11.8657 5.57174 12.2118C5.58201 12.4867 5.41463 12.7936 5.36371 12.8819C5.16613 13.2144 5.06725 13.1593 4.93182 13.0833L3.88672 12.4695C3.61481 12.31 3.2737 12.0964 3.10858 11.9884ZM3.71429 12.9162C3.71429 12.915 4.16464 13.1789 4.16464 13.1789L4.31131 13.2697L4.62491 13.4661C5.07213 13.7471 5.10721 13.8343 5.12688 13.8808L5.14829 13.9349L5.17597 13.8833C5.19137 13.8539 5.20547 13.8244 5.22132 13.7937C5.25074 13.7336 5.28451 13.6649 5.34222 13.5666C5.37851 13.5053 5.42012 13.4414 5.46738 13.3678C5.5257 13.2782 5.59254 13.1764 5.66322 13.0561C5.86254 12.7173 6.0744 12.2659 5.9387 11.7822C5.80545 11.3074 5.41463 10.9943 5.10956 10.8164C5.01512 10.7587 4.68132 10.5721 4.35491 10.5158C3.68357 10.4064 3.32836 10.852 3.09256 11.2508C3.01223 11.3871 2.95521 11.5037 2.90116 11.6166C2.85137 11.7197 2.8042 11.8179 2.74162 11.9221C2.66737 12.0498 2.5275 12.2376 2.48815 12.2805L2.45508 12.3137L2.50173 12.3248C2.75641 12.3861 2.84223 12.4083 3.71429 12.9162Z" fill="#FEFEFE"/>
<path fill-rule="evenodd" clip-rule="evenodd" d="M5.03366 9.8086C5.03235 9.8086 5.8676 10.4908 5.8676 10.4908L5.87369 10.496C6.17937 10.7291 6.52414 10.9917 6.9402 10.848C7.1544 10.7781 7.3828 10.5671 7.5238 10.3928C7.66864 10.2161 7.86318 9.9436 7.87493 9.64906C7.89077 9.21699 7.61772 8.96918 7.37531 8.75062L7.37166 8.74827L6.4942 8.02897C6.10139 7.70013 6.01234 7.5996 5.90807 7.43257L5.88674 7.39453L5.86394 7.43257L5.85219 7.44858C5.80876 7.51848 5.76506 7.58976 5.71484 7.65339C5.66018 7.7198 5.60116 7.77751 5.52831 7.84009L5.49027 7.87195L5.53876 7.88666C5.61849 7.90999 5.66566 7.93088 5.75349 7.99215C5.81607 8.03149 6.03262 8.20323 6.22107 8.35555L6.9274 8.9348C7.29367 9.23422 7.67047 9.54356 7.25807 10.0466C7.0053 10.3559 6.75498 10.437 6.47009 10.3069C6.34623 10.2503 6.22229 10.1498 6.04995 10.0098L5.3417 9.43059C5.20173 9.31526 5.01103 9.15928 4.88578 9.00974C4.8023 8.91278 4.7876 8.87222 4.77663 8.82182L4.76113 8.76046L4.72693 8.81329L4.71883 8.8267C4.66243 8.91382 4.60472 9.00356 4.53596 9.08704C4.47207 9.16546 4.3973 9.23788 4.32428 9.30794L4.31697 9.31526L4.27832 9.35199L4.32985 9.36182C4.45815 9.38646 4.51699 9.3962 5.03366 9.8086Z" fill="#FEFEFE"/>
<path fill-rule="evenodd" clip-rule="evenodd" d="M7.24193 7.18916L7.52621 7.53044L7.64641 7.68129C8.01216 8.13921 8.27528 8.47048 8.39575 8.65954C8.50002 8.81543 8.53545 8.9049 8.57 8.99334L8.57853 9.01301L8.59698 9.05722L8.62388 9.01788C8.67558 8.95173 8.73816 8.88662 8.8031 8.83127C8.87682 8.76755 8.96012 8.71228 9.03871 8.66075L9.0731 8.63856L9.04124 8.61532C8.85715 8.49137 8.78839 8.42505 8.52326 8.10483L8.15995 7.67145C7.96133 7.43218 7.78829 7.22476 7.59602 7.00263C7.52743 6.9229 7.4672 6.8578 7.41079 6.79774C7.61934 6.92656 7.75939 7.00759 8.00598 7.14512L9.64382 8.09255L9.66105 8.10117L9.67455 8.08881L9.83888 7.9478L9.85246 7.93544L9.84628 7.91699L9.17754 6.02455L9.01434 5.55932C8.99084 5.49187 8.97126 5.43677 8.95533 5.39003C9.05839 5.5239 9.20078 5.6931 9.38496 5.9067L9.91251 6.51668C10.3728 7.04937 10.4758 7.2359 10.4894 7.35123L10.4967 7.4125L10.5385 7.36594C10.6219 7.26541 10.6932 7.18916 10.7643 7.1291C10.8502 7.05538 10.9459 6.99279 11.0269 6.94257L11.0711 6.91437L11.0221 6.89479L11.0097 6.88852C10.9496 6.86397 10.8993 6.84561 10.7949 6.7449C10.5655 6.54367 10.2537 6.19028 9.37252 5.15441C9.11 4.84272 9.08293 4.77265 9.01173 4.5849L8.99702 4.54199L8.9676 4.57507C8.85715 4.69666 8.76871 4.78614 8.67924 4.86343C8.56016 4.96431 8.50124 4.99974 8.42516 5.04265L8.40297 5.05614L8.41533 5.07964C8.53188 5.29428 8.5626 5.37906 8.65591 5.63305L8.65713 5.64053C8.65713 5.63923 8.96395 6.53017 8.96395 6.53017L9.02418 6.70809C9.09277 6.91315 9.17754 7.15983 9.26467 7.34635C9.10495 7.2359 8.96264 7.14633 8.71231 7.01499C8.71484 7.01612 7.91023 6.54854 7.91023 6.54854C7.62491 6.38168 7.51254 6.31292 7.23593 6.10185L7.21626 6.08714L7.20024 6.10428L7.16717 6.13736C7.08378 6.22457 7.00518 6.3057 6.9211 6.37681C6.82414 6.46263 6.72474 6.53383 6.61672 6.6099L6.60323 6.61974L6.54004 6.66387L6.61672 6.66752C6.68801 6.67257 6.81622 6.67867 7.24193 7.18916Z" fill="#FEFEFE"/>
<path fill-rule="evenodd" clip-rule="evenodd" d="M12.3181 4.33459C12.2727 4.24616 12.1082 3.93943 12.1082 3.93943C11.9229 3.5883 11.8689 3.47062 11.7953 3.31099L11.772 3.26068C11.8443 3.21046 11.9009 3.17608 11.9941 3.1269C12.0983 3.0705 12.3158 2.95265 12.5292 3.01653C12.6593 3.05579 12.7697 3.15771 12.8581 3.32213C12.9625 3.51484 12.9833 3.70877 12.9194 3.8657C12.8679 4.00079 12.749 4.11612 12.5708 4.21195C12.5292 4.23397 12.4764 4.25852 12.4162 4.28802L12.3181 4.33459ZM11.6431 4.0793L12.096 4.92238C12.3869 5.46368 12.5268 5.80479 12.5144 5.93744V5.94345L12.5095 5.99768L12.5562 5.9693L12.5661 5.96199C12.6543 5.90428 12.7451 5.84771 12.841 5.79496C12.9367 5.74604 13.0347 5.70052 13.133 5.65891L13.1857 5.63672L13.133 5.60974C13.1305 5.60852 13.127 5.60721 13.1231 5.60599C13.0741 5.58267 12.9625 5.53244 12.539 4.74455L12.485 4.64385L12.5685 4.60207C12.6409 4.56786 12.6973 4.53835 12.7587 4.50632C12.9833 4.38377 13.2975 4.18357 13.4055 3.83881C13.4999 3.52955 13.3957 3.23004 13.2889 3.03246C13.1552 2.78448 12.9908 2.62868 12.7992 2.56975C12.5072 2.48271 12.2039 2.62381 11.945 2.76368C11.9106 2.78205 11.8198 2.83236 11.7314 2.88275C11.6493 2.92932 11.5708 2.97354 11.5425 2.98955C11.3804 3.07546 11.2602 3.1256 11.1461 3.17608L11.081 3.20297L11.0381 3.22134L11.076 3.24972C11.2444 3.37236 11.4774 3.76883 11.6431 4.0793Z" fill="#FEFEFE"/>
<path fill-rule="evenodd" clip-rule="evenodd" d="M14.0282 2.77638L14.0405 2.8058L14.432 3.81834C14.5266 4.06501 14.632 4.34737 14.6787 4.58282C14.6984 4.67378 14.7009 4.7327 14.7032 4.83071V4.87493L14.7426 4.85404C14.9389 4.75237 15.1034 4.68849 15.4592 4.54983L15.4936 4.53625C15.831 4.40613 16.0545 4.3324 16.203 4.28462C16.2546 4.26625 16.2937 4.25407 16.3281 4.24162L16.3503 4.23439L16.3454 4.20985C16.2914 3.99381 16.2802 3.93489 16.2692 3.67716L16.2644 3.58272L16.2177 3.66489C16.1491 3.78518 16.0925 3.88815 15.8249 4.0282C15.712 4.08956 15.6213 4.12394 15.5784 4.14109C15.1499 4.30803 15.1256 4.28349 15.0051 3.98032C15.0051 3.98032 14.7842 3.40716 14.7351 3.282C15.0469 3.15187 15.2162 3.08798 15.4225 3.03167C15.5513 2.99729 15.598 3.00216 15.7194 3.02671L15.7808 3.03889L15.7489 2.98736C15.6997 2.90642 15.6703 2.85236 15.6311 2.75053C15.5844 2.63389 15.5673 2.56765 15.5476 2.4646L15.5305 2.39105L15.4961 2.4585L15.4936 2.4646C15.4617 2.52344 15.442 2.56026 15.3782 2.60821C15.3157 2.65356 15.199 2.70761 15.0492 2.76524C14.8494 2.84383 14.7291 2.88065 14.5952 2.91869L14.4356 2.50638C14.3818 2.37138 14.3252 2.21183 14.2774 2.06821C14.4112 2.00807 14.4958 1.97125 14.6394 1.91729C15.091 1.74051 15.1598 1.76018 15.328 1.85096L15.4053 1.89274L15.3661 1.81536C15.3267 1.74051 15.301 1.6828 15.2776 1.62274C15.2554 1.56503 15.2383 1.51229 15.2212 1.4558C15.2089 1.4202 15.1967 1.38338 15.1843 1.34525L15.1745 1.31836L15.1475 1.32941C14.8923 1.44109 14.5621 1.5834 14.2639 1.69881C13.8737 1.84974 13.719 1.89143 13.6354 1.91476L13.6269 1.91729L13.5889 1.92712L13.6134 1.95889C13.7889 2.18232 13.8343 2.29522 14.0282 2.77638Z" fill="#FEFEFE"/>
<path fill-rule="evenodd" clip-rule="evenodd" d="M15.933 1.1866C15.9589 1.24918 15.9796 1.30323 15.9956 1.36582C16.0153 1.44441 16.0215 1.5278 16.0238 1.59778L16.0288 1.67142L16.0729 1.61379C16.1712 1.48732 16.2312 1.43823 16.564 1.35111C16.564 1.35232 16.8314 1.286 16.9149 1.2652C16.9799 1.46278 17.0634 1.74009 17.2634 2.544C17.5483 3.69894 17.4942 3.81914 17.4757 3.86449L17.4745 3.86815L17.4487 3.92707L17.5089 3.90505L17.5261 3.89757C17.6267 3.86084 17.7249 3.8241 17.8304 3.79947C17.9261 3.77493 18.0317 3.75787 18.1323 3.75038L18.1851 3.74551L18.1519 3.70616C18.1078 3.6522 18.0783 3.61782 18.0218 3.47551C17.9261 3.24224 17.8096 2.79067 17.7076 2.3808C17.5556 1.76951 17.4855 1.44798 17.4241 1.13873L17.7322 1.06144C18.1225 0.979182 18.1642 0.979182 18.3521 1.05038L18.411 1.07493L18.3851 1.01487C18.3533 0.934965 18.3262 0.854017 18.3066 0.782905C18.2869 0.70187 18.2723 0.615961 18.2625 0.517779L18.26 0.483398L18.2256 0.493234C17.9261 0.593853 17.6047 0.679762 17.0438 0.817286C16.5516 0.938708 16.0595 1.059 15.9257 1.06387L15.8877 1.06509L15.9012 1.09947C15.9134 1.13142 15.9245 1.15962 15.933 1.1866Z" fill="#FEFEFE"/>
<path fill-rule="evenodd" clip-rule="evenodd" d="M19.2313 1.8781C19.2828 2.23401 19.3221 2.53596 19.3627 2.93608C19.3957 3.28694 19.3736 3.36676 19.3467 3.46747L19.332 3.51534L19.381 3.50063C19.4693 3.47347 19.5774 3.44292 19.6879 3.42691C19.8008 3.40985 19.9162 3.40985 20.0043 3.40985L20.0535 3.4122L20.0265 3.3705C19.9358 3.2281 19.9136 3.17292 19.8572 2.8648C19.7909 2.48808 19.7467 2.20947 19.6879 1.80699L19.6413 1.4879C19.5357 0.672939 19.5282 0.589467 19.5934 0.339139L19.6043 0.294922L19.5601 0.305976L19.5479 0.309632C19.4522 0.334264 19.3515 0.36116 19.2508 0.37352C19.1527 0.388229 19.0484 0.393104 18.9478 0.395541H18.9343L18.8877 0.396759L18.9122 0.43732C18.9538 0.504777 18.9808 0.550212 19.0276 0.72203C19.0594 0.844758 19.073 0.91352 19.1846 1.55771L19.2313 1.8781Z" fill="#FEFEFE"/>
<path fill-rule="evenodd" clip-rule="evenodd" d="M22.6591 0.387639C22.6568 0.310347 22.6568 0.22557 22.6666 0.119989L22.6689 0.0869141L22.6371 0.0905698C22.3278 0.129825 21.9965 0.149496 21.4134 0.176479C20.9054 0.198587 20.401 0.219477 20.2685 0.198587L20.2305 0.193713L20.2365 0.230444C20.2427 0.259951 20.2475 0.288152 20.2512 0.313916C20.2647 0.385115 20.2745 0.444042 20.2783 0.51028C20.2819 0.591314 20.2722 0.672349 20.261 0.742243L20.2501 0.814661L20.3039 0.768094C20.4267 0.662514 20.4956 0.626827 20.8392 0.606024C20.8392 0.606024 21.1128 0.593752 21.1974 0.590096C21.2233 0.793858 21.2515 1.07735 21.2895 1.91424C21.3423 3.10226 21.2663 3.21037 21.2393 3.24962L21.2367 3.25458L21.2 3.30602L21.2626 3.29628L21.2663 3.29497C21.3791 3.27652 21.4859 3.25946 21.6001 3.25458C21.6995 3.24962 21.8075 3.25458 21.9068 3.26433L21.9597 3.27043L21.9326 3.22508C21.9008 3.16615 21.8774 3.12681 21.8517 2.97475C21.8038 2.73043 21.7793 2.28495 21.7596 1.83948C21.7289 1.20486 21.7227 0.878549 21.7227 0.566769L22.0418 0.552059C22.4383 0.547098 22.48 0.554496 22.6505 0.662514L22.7022 0.695676L22.6911 0.633094C22.674 0.544661 22.6616 0.462407 22.6591 0.387639Z" fill="#FEFEFE"/>
<path fill-rule="evenodd" clip-rule="evenodd" d="M24.7319 3.35415C24.8423 3.36764 24.9503 3.39471 25.0411 3.41925L25.0902 3.43379L25.0755 3.38487C25.0239 3.22533 25.0141 3.1664 25.0388 2.85462C25.068 2.48653 25.0975 2.20791 25.1467 1.78811L25.1786 1.46789C25.2841 0.665113 25.3013 0.569456 25.4289 0.343672L25.4511 0.30433H25.4045H25.3921C25.2891 0.30433 25.186 0.30433 25.0878 0.292057C24.9847 0.279785 24.8791 0.255239 24.7784 0.230694L24.7319 0.219727L24.7441 0.262638C24.7662 0.33993 24.781 0.390239 24.781 0.569456C24.7834 0.7008 24.7784 0.775568 24.7196 1.41871L24.6828 1.74024C24.6411 2.10233 24.6017 2.40671 24.5405 2.79578C24.4839 3.14307 24.4422 3.21549 24.3908 3.30758L24.3662 3.35049L24.4128 3.34797C24.5379 3.34196 24.6386 3.34318 24.7319 3.35415Z" fill="#FEFEFE"/>
<path fill-rule="evenodd" clip-rule="evenodd" d="M25.8372 3.50541C25.9305 3.51141 26.0187 3.51759 26.1072 3.53848C26.1906 3.55946 26.2765 3.59619 26.36 3.6331L26.3673 3.63545L26.4091 3.6539L26.4017 3.60838C26.3748 3.33838 26.4459 3.03165 26.5122 2.76408V2.75921L26.6447 2.21799C26.7723 1.68896 26.8288 1.40181 26.8633 1.14652C26.8876 1.23974 26.9245 1.36255 26.981 1.54177L27.0769 1.84981L27.4767 3.15933C27.6117 3.58018 27.6267 3.63545 27.7027 3.94113L27.71 3.96072H27.7272C27.8106 3.96315 27.8843 3.97168 27.958 3.98901C28.034 4.00859 28.1077 4.04045 28.1863 4.06995L28.1935 4.07361L28.2255 4.0871L28.2303 4.05028C28.2574 3.76679 28.3213 3.48826 28.3826 3.22792C28.5176 2.67939 28.6502 2.17012 28.79 1.67425C28.8931 1.31843 28.9569 1.20049 29.0257 1.09255L29.0477 1.05817L29.0085 1.05078L28.9913 1.04834C28.903 1.03607 28.817 1.02379 28.7408 1.00421C28.6157 0.974702 28.5151 0.942845 28.4537 0.918299L28.4022 0.896191L28.4144 0.947806C28.4341 1.04346 28.4684 1.20301 28.2918 1.93815L28.1592 2.47937C28.115 2.65981 28.0316 3.00466 27.9824 3.25508C27.9652 3.18754 27.9383 3.10528 27.9014 2.98012L27.7836 2.59966L27.4081 1.34167C27.2902 0.855717 27.2781 0.804102 27.2559 0.63594L27.2535 0.616355L27.2313 0.613918C27.0816 0.599208 26.932 0.567265 26.8312 0.542806C26.7258 0.518261 26.6275 0.485011 26.4925 0.434702L26.4289 0.410156L26.4583 0.471607C26.522 0.599209 26.5464 0.650649 26.4826 1.03859C26.3944 1.55639 26.1268 2.67696 25.9673 3.11512C25.8962 3.31018 25.8519 3.38381 25.7979 3.46241L25.7734 3.50045L25.8201 3.50288L25.8372 3.50541Z" fill="#FEFEFE"/>
<path fill-rule="evenodd" clip-rule="evenodd" d="M31.6935 2.49889C31.7794 2.52717 31.8384 2.5505 31.9341 2.59707C32.1157 2.68298 32.5354 2.88543 32.2875 3.40837C32.1918 3.60831 32.0494 3.74096 31.8849 3.78021C31.7476 3.81703 31.5806 3.7924 31.4013 3.70527C31.3548 3.68455 31.3057 3.65618 31.2468 3.62319L31.1511 3.5741C31.1952 3.48567 31.3449 3.17023 31.3449 3.17023C31.5242 2.80579 31.5831 2.69899 31.6739 2.53327L31.6935 2.49889ZM30.2821 4.85908C30.3729 4.90182 30.4638 4.95352 30.5644 5.01244L30.6135 5.04195L30.6036 4.98537C30.6036 4.98041 30.6012 4.97806 30.6012 4.97319C30.5914 4.92149 30.5669 4.79885 30.9498 3.99381C30.9498 3.99381 30.9842 3.9274 31.0013 3.89067L31.0774 3.92992C31.1511 3.96796 31.2099 3.99868 31.2738 4.02932C31.502 4.13864 31.8531 4.27234 32.1942 4.15579C32.5011 4.05021 32.6802 3.78752 32.7759 3.58628C33.1516 2.79831 32.5306 2.50141 32.1965 2.34421C32.1624 2.32707 32.0715 2.28538 31.9856 2.24612C31.8973 2.20808 31.8089 2.16752 31.7794 2.15281C31.6051 2.07065 31.4921 2.0031 31.3819 1.93556L31.3328 1.90744L31.2934 1.88281V1.92947C31.291 2.09876 31.1804 2.41794 30.9573 2.87943L30.5449 3.74096C30.2797 4.29567 30.0883 4.6111 29.9727 4.67864C29.9727 4.67969 29.9704 4.68099 29.968 4.68221L29.9238 4.7105L29.9727 4.73008C30.0785 4.77065 30.1815 4.81103 30.2821 4.85908Z" fill="#FEFEFE"/>
<path fill-rule="evenodd" clip-rule="evenodd" d="M34.4078 3.96878C34.7491 4.18961 34.8251 4.45473 34.6311 4.75415C34.5895 4.81055 34.4791 4.98255 34.2433 5.02415C34.0126 5.06106 33.8261 4.94068 33.6912 4.8499C33.6273 4.81055 33.588 4.78131 33.5341 4.73579C33.588 4.65353 33.7942 4.33575 33.7942 4.33575C33.9242 4.13816 33.9856 4.04355 34.1551 3.82395L34.4078 3.96878ZM32.1717 5.76426L32.162 5.76922L32.1152 5.79115L32.162 5.817C32.2577 5.87106 32.3534 5.92258 32.4418 5.98021C32.5349 6.04026 32.6259 6.11155 32.7092 6.17526L32.7462 6.20242L32.7511 6.15568L32.7534 6.14341C32.7609 6.07717 32.7657 6.0219 32.8198 5.90526C32.8812 5.77775 32.9498 5.65493 33.1168 5.38006C33.1168 5.38006 33.2934 5.11258 33.3449 5.03164L33.6052 5.21068C33.6248 5.3751 33.6322 5.49556 33.5978 6.00118C33.5807 6.20729 33.561 6.44657 33.5168 6.67853L33.512 6.6982L33.529 6.70795L33.5929 6.74233C33.6935 6.79639 33.755 6.82946 33.8408 6.88482C33.9242 6.9387 33.9906 6.99031 34.0617 7.05533L34.128 7.1106L34.1083 7.02835C34.0495 6.79021 34.0544 6.61961 34.0667 6.20242C34.0667 6.20242 34.0911 5.58382 34.0961 5.42802C34.317 5.48808 34.7907 5.46849 35.0705 5.04147C35.2253 4.79967 35.2816 4.57493 35.2399 4.3737C35.1835 4.0963 34.9528 3.91473 34.7122 3.75884C34.619 3.69878 34.5283 3.64221 34.4496 3.59329C34.3881 3.5563 34.3367 3.52322 34.29 3.49502C34.0152 3.3158 33.9734 3.27646 33.885 3.19551L33.8481 3.16113L33.8408 3.21031C33.8065 3.3857 33.6666 3.6557 33.4211 4.03502L32.9989 4.68539C32.6699 5.18248 32.4785 5.47084 32.3534 5.6182C32.2626 5.72248 32.2209 5.74337 32.1717 5.76426Z" fill="#FEFEFE"/>
<path fill-rule="evenodd" clip-rule="evenodd" d="M37.3535 6.75489C37.28 7.04343 37.0615 7.32692 36.9338 7.46915C36.7055 7.72827 36.4821 7.89887 36.2662 7.97729C36.1385 8.02403 36.0108 8.0437 35.8882 8.03387C35.7336 8.01663 35.5861 7.9504 35.4659 7.8449C35.1886 7.60049 35.1861 7.29376 35.2132 7.13169C35.2475 6.8986 35.3947 6.63591 35.6451 6.34989C36.0428 5.90085 36.4085 5.71798 36.7669 5.79031C36.8945 5.81973 37.0123 5.87996 37.1155 5.97196C37.2479 6.08738 37.454 6.34519 37.3535 6.75489ZM34.7516 7.14275C34.7542 7.34398 34.8129 7.54174 34.9161 7.71713C34.9946 7.85213 35.1002 7.97729 35.2278 8.09279C35.5666 8.38978 35.9274 8.50998 36.303 8.45358C36.6712 8.39961 37.0271 8.18349 37.3535 7.81174C37.6726 7.45209 37.8371 7.09366 37.8494 6.74767C37.8567 6.37209 37.6776 6.00513 37.3462 5.71189C37.032 5.4344 36.6712 5.31054 36.303 5.3558C36.0477 5.38531 35.6549 5.519 35.245 5.98676C34.9063 6.36956 34.7394 6.75994 34.7516 7.14275Z" fill="#FEFEFE"/>
<path fill-rule="evenodd" clip-rule="evenodd" d="M37.4686 8.70138C37.0881 9.02412 36.855 9.21936 36.6071 9.31266L36.5654 9.32737L36.5972 9.35688C36.6831 9.43652 36.7617 9.5139 36.823 9.58501C36.8843 9.65874 36.9433 9.73725 37.0071 9.82803L37.0316 9.86972L37.0537 9.82429L37.0586 9.81454C37.0858 9.75674 37.1004 9.72619 37.1494 9.66231C37.3041 9.46481 37.5055 9.28681 38.0651 8.8107C38.1705 8.92472 38.2344 8.99592 38.2811 9.04997L38.2958 9.06721C38.2958 9.06599 38.3079 9.07939 38.3079 9.07939C38.3547 9.13467 38.4528 9.25008 38.5143 9.33956C38.6369 9.51146 38.6444 9.5703 38.6591 9.66109L38.6689 9.71766C38.6689 9.72001 38.7082 9.67597 38.7082 9.67597L38.718 9.66727C38.7744 9.60233 38.8358 9.53592 38.9046 9.47221C38.9658 9.41929 39.0223 9.38378 39.0838 9.342L39.1205 9.31754L39.1719 9.28551L39.1133 9.26975C39.0983 9.26592 39.0861 9.26349 39.0739 9.26096C39.0077 9.24878 38.9535 9.23894 38.7892 9.07452C38.7031 8.98609 38.6296 8.90383 38.5707 8.82785C38.5536 8.802 38.5289 8.77501 38.4996 8.73828C38.4602 8.69285 38.4135 8.63636 38.3521 8.55907L38.6444 8.30874C38.7892 8.18105 38.8432 8.13187 39.0517 7.96867C39.0812 7.99939 39.1081 8.02873 39.1377 8.0571C39.1696 8.09026 39.2041 8.12465 39.2384 8.16025C39.2604 8.18845 39.2899 8.21795 39.3144 8.24485C39.339 8.27183 39.366 8.30125 39.3905 8.32954C39.4936 8.44739 39.5818 8.57621 39.631 8.67074C39.6776 8.77249 39.6703 8.83638 39.6654 8.90383V8.92115L39.6555 9.01316L39.7146 8.93952C39.7685 8.87076 39.8275 8.80939 39.8912 8.75543C39.9526 8.70138 39.9967 8.67318 40.0753 8.6253L40.1048 8.60807L40.0827 8.58361C39.8862 8.37732 39.6654 8.14536 39.4936 7.94543C39.3315 7.76134 39.1205 7.49386 39.0199 7.36617L38.9757 7.30847L38.9488 7.27539L38.9315 7.31212C38.8603 7.44947 38.8185 7.5319 38.0798 8.17243L37.4783 8.69407L37.4686 8.70138Z" fill="#FEFEFE"/>
<path fill-rule="evenodd" clip-rule="evenodd" d="M39.0546 10.421L39.0521 10.4223C38.7355 10.6432 38.3771 10.8924 38.3869 11.3342C38.3919 11.5587 38.5219 11.8398 38.6447 12.0301C38.7698 12.2215 38.9688 12.4865 39.2485 12.5884C39.6559 12.7345 39.975 12.5479 40.2572 12.3834H40.2598L41.2096 11.7624C41.6441 11.4912 41.7669 11.436 41.9583 11.3869L42.0001 11.3771L41.9706 11.344C41.9067 11.2716 41.8502 11.2064 41.8036 11.1341C41.757 11.0642 41.7203 10.9942 41.6834 10.901L41.6613 10.8568L41.6367 10.8961C41.5901 10.9672 41.5558 11.0053 41.4723 11.0702C41.4134 11.1193 41.1752 11.2765 40.9813 11.4042L40.2156 11.9023C39.8204 12.1601 39.4105 12.4252 39.0546 11.8791C38.841 11.5465 38.8361 11.2825 39.0496 11.0518C39.1356 10.9524 39.2584 10.869 39.4596 10.7414L40.223 10.2418C40.3678 10.1498 40.5814 10.0099 40.7629 9.93378C40.8832 9.88469 40.9248 9.88234 40.9765 9.88721L41.0402 9.89218L40.9986 9.843L40.9911 9.8356C40.9248 9.75465 40.8561 9.67005 40.7973 9.57796C40.7408 9.4944 40.6967 9.40362 40.6525 9.31396L40.645 9.29943L40.6205 9.25391L40.596 9.29943C40.5346 9.41345 40.5051 9.46629 39.9577 9.83429C39.9577 9.83325 39.0546 10.421 39.0546 10.421Z" fill="#FEFEFE"/>
<path fill-rule="evenodd" clip-rule="evenodd" d="M39.6677 13.5693L39.6211 13.5743L39.6481 13.6122L39.6554 13.6234C39.7094 13.7007 39.7586 13.7754 39.7929 13.859C39.8297 13.9374 39.8518 14.0307 39.8739 14.1204V14.124L39.8837 14.1682L39.9182 14.1364C40.1193 13.9448 40.4066 13.8184 40.6593 13.7067L41.1701 13.4835C41.6731 13.2613 41.9332 13.1299 42.1517 13.0048C42.0954 13.0808 42.0217 13.184 41.9137 13.336L41.7246 13.6024L40.927 14.7155C40.6766 15.0789 40.6422 15.1231 40.4459 15.3697L40.4335 15.3856L40.4459 15.4028C40.4949 15.4727 40.5318 15.5355 40.5587 15.6004C40.5932 15.6741 40.6127 15.7502 40.6348 15.8298L40.6374 15.8397L40.6471 15.8741L40.679 15.8557C40.922 15.7036 41.1822 15.5844 41.4251 15.4765C41.9506 15.2433 42.4364 15.0408 42.9053 14.8531C43.249 14.7204 43.3765 14.6984 43.5115 14.6886L43.5558 14.6837L43.5312 14.6469C43.4894 14.5684 43.4404 14.4848 43.4086 14.4088C43.3519 14.2859 43.3176 14.1903 43.3005 14.1265L43.2906 14.0749L43.2539 14.1142C43.19 14.1879 43.0845 14.3131 42.3923 14.6175L41.8843 14.8432L41.8425 14.8616C41.6436 14.95 41.3637 15.0739 41.1576 15.1745C41.2018 15.1194 41.2508 15.0494 41.3245 14.9439L41.5601 14.6175L42.3284 13.5571L42.353 13.5288C42.6475 13.1618 42.6819 13.1251 42.7972 13.0072L42.812 12.9924L42.8022 12.9728C42.7088 12.8256 42.6402 12.6722 42.6156 12.6133C42.5714 12.5139 42.5347 12.4157 42.4929 12.2782L42.4732 12.2119L42.4439 12.2732C42.385 12.3973 42.3555 12.4524 42.0094 12.6366C41.5479 12.882 40.4925 13.3495 40.0457 13.4907C39.8371 13.5571 39.7462 13.5631 39.6677 13.5693Z" fill="#FEFEFE"/>
<path fill-rule="evenodd" clip-rule="evenodd" d="M43.6932 16.4163L43.7055 16.452C43.7473 16.5588 43.811 16.7157 43.8504 16.868C43.9165 17.1269 43.902 17.3687 43.811 17.565C43.6416 17.9258 43.2637 18.062 42.9593 18.1419C42.4218 18.278 42.0388 18.2302 41.7861 17.9933C41.5873 17.8055 41.489 17.4716 41.4645 17.3735C41.3664 16.998 41.4768 16.9661 41.6289 16.9231C41.6266 16.9244 42.8022 16.6237 42.8022 16.6237C43.0919 16.5488 43.4821 16.4605 43.6932 16.4163ZM42.1052 16.3157L41.9309 16.3549L41.5774 16.4383C41.0571 16.5536 40.9736 16.5157 40.927 16.4972L40.873 16.4715L40.8926 16.5293C40.8975 16.5611 40.9098 16.593 40.922 16.6273C40.9441 16.6911 40.9663 16.7636 40.9958 16.8728C41.0128 16.9391 41.03 17.0139 41.0447 17.0987C41.0693 17.2043 41.0939 17.3245 41.1282 17.4595C41.2264 17.8412 41.3933 18.3111 41.8301 18.5578C42.2573 18.8021 42.758 18.7481 43.0993 18.6597C43.2049 18.6328 43.5755 18.5296 43.8454 18.3406C44.4001 17.9431 44.3388 17.3785 44.2259 16.9294C44.1842 16.7771 44.1425 16.6544 44.1056 16.5391C44.064 16.4285 44.0295 16.3255 43.9976 16.2052C43.9633 16.0628 43.929 15.8321 43.929 15.7731L43.9264 15.7266L43.8871 15.7511C43.6638 15.8861 43.5852 15.9316 42.6084 16.188C42.6084 16.188 42.1027 16.3157 42.1052 16.3157Z" fill="#FEFEFE"/>
<path fill-rule="evenodd" clip-rule="evenodd" d="M43.2074 19.4676C42.8269 19.5191 42.5324 19.5559 42.1469 19.5928C41.7985 19.6246 41.715 19.6002 41.6143 19.5731L41.5654 19.5609L41.58 19.6075C41.6047 19.6909 41.6365 19.8015 41.6536 19.9143C41.6634 20.0052 41.6683 20.1022 41.666 20.2297L41.6634 20.2813L41.7102 20.2543C41.8499 20.1646 41.9065 20.1426 42.2133 20.0873C42.6011 20.0224 42.881 19.9805 43.2738 19.928L43.5929 19.8824C44.4101 19.7842 44.4936 19.7769 44.7439 19.8431L44.7881 19.8554L44.7758 19.8113V19.8075C44.7514 19.7069 44.7219 19.6037 44.707 19.4995C44.6948 19.3988 44.6924 19.2933 44.6924 19.1914V19.1852V19.1387L44.6506 19.1607C44.5795 19.2026 44.5353 19.2295 44.366 19.2725C44.2407 19.3055 44.1696 19.3202 43.5265 19.4259L43.2074 19.4676Z" fill="#FEFEFE"/>
<path fill-rule="evenodd" clip-rule="evenodd" d="M44.9605 21.8894C44.9458 21.5432 44.8255 21.2512 44.6266 21.0647C44.4573 20.9063 44.234 20.8289 43.9861 20.8377C43.532 20.8537 43.3724 21.1506 43.2669 21.3445C43.2645 21.3469 43.1 21.6931 43.1 21.6931L43.0976 21.6955C42.9969 21.9213 42.8889 22.1571 42.6263 22.1669C42.5084 22.1705 42.4004 22.1323 42.3145 22.0539C42.2065 21.9508 42.1452 21.7888 42.1378 21.585C42.1231 21.1972 42.2704 21.072 42.4029 20.9641L42.4078 20.9567L42.4593 20.915L42.3931 20.9113C42.1059 20.8879 42.0543 20.8793 41.8899 20.8315L41.8679 20.8242L41.8579 20.8486C41.7991 21.0156 41.7745 21.0893 41.7623 21.315C41.7549 21.4035 41.7549 21.4894 41.7573 21.585C41.777 22.0956 41.9757 22.3485 42.0912 22.454C42.2654 22.6135 42.5011 22.6971 42.7539 22.6871C43.2301 22.6689 43.3871 22.314 43.5443 21.9717V21.968C43.5443 21.9667 43.6325 21.7666 43.6325 21.7666C43.7233 21.5727 43.8241 21.3567 44.0917 21.3469C44.315 21.3397 44.558 21.5016 44.5726 21.8759C44.5849 22.2305 44.4034 22.4012 44.3175 22.4835L44.2635 22.53H44.3347C44.5653 22.5287 44.6341 22.53 44.8525 22.5791L44.8819 22.5864L44.8844 22.5546C44.8894 22.5005 44.8943 22.4762 44.9113 22.3508L44.9238 22.2797C44.9359 22.1975 44.9655 22.0208 44.9605 21.8894Z" fill="#FEFEFE"/>
<path fill-rule="evenodd" clip-rule="evenodd" d="M1.83418 27.9168H1.83479H1.83783L2.94856 27.6923C3.45174 27.5964 3.58552 27.5904 3.7831 27.6174L3.82541 27.6235L3.81139 27.5819C3.78197 27.4983 3.75055 27.4148 3.73288 27.3265C3.71626 27.2431 3.70825 27.1609 3.70581 27.0663L3.70529 27.0135L3.66403 27.0419C3.59466 27.0897 3.55001 27.1154 3.44748 27.1449C3.37506 27.1671 3.10567 27.2234 2.86761 27.2726L1.97231 27.4516C1.68638 27.5106 1.36303 27.578 1.14691 27.4332C1.02418 27.3523 0.944971 27.2124 0.90206 27.0026C0.822853 26.6147 0.918685 26.3693 1.20026 26.2318C1.32177 26.1692 1.47897 26.1385 1.69857 26.0944L2.59326 25.9139C2.77056 25.8782 3.01236 25.828 3.20811 25.8268C3.33876 25.8244 3.37741 25.8391 3.42354 25.8625L3.48186 25.8907L3.46097 25.8293L3.45844 25.8195C3.42598 25.7212 3.3922 25.6158 3.37079 25.5076C3.34921 25.4021 3.34068 25.2917 3.33328 25.1935L3.32893 25.1406L3.28854 25.1738C3.18844 25.2573 3.14309 25.2965 2.49751 25.434L1.44145 25.6488L1.4371 25.6501C1.06161 25.7385 0.635716 25.8391 0.483569 26.2513C0.404362 26.4613 0.422205 26.7719 0.466422 26.9915C0.512379 27.2185 0.598288 27.5388 0.819197 27.734C1.14447 28.0211 1.51082 27.9647 1.83418 27.9168Z" fill="#FEFEFE"/>
<path fill-rule="evenodd" clip-rule="evenodd" d="M4.25855 30.7783C4.6095 30.6616 4.74389 30.6505 4.87288 30.648L4.91257 30.6432L4.89551 30.6076C4.84764 30.5118 4.81134 30.4369 4.78314 30.3609C4.73527 30.237 4.70454 30.1387 4.69044 30.0738L4.68017 30.0221L4.64509 30.0615C4.57807 30.1302 4.46597 30.2479 3.75833 30.5181L3.23861 30.7144L3.18029 30.7389C2.9821 30.815 2.70418 30.9205 2.49746 31.0089C2.54219 30.9573 2.59372 30.8911 2.67345 30.7904L2.92509 30.4737L3.7491 29.4526C4.08421 29.0821 4.11989 29.044 4.24567 28.9299L4.26151 28.9152L4.25106 28.8979C4.17307 28.7555 4.11119 28.6035 4.08299 28.5274C4.04251 28.4181 4.01309 28.3211 3.97932 28.185L3.96209 28.1162L3.93023 28.1775C3.86016 28.3027 3.83092 28.353 3.47736 28.5199C3.00299 28.741 1.92542 29.1532 1.47255 29.2712C1.26218 29.325 1.17061 29.3275 1.09088 29.33L1.04492 29.3324L1.06825 29.3717L1.07869 29.3888C1.12526 29.4673 1.17009 29.5411 1.20072 29.6257C1.23206 29.7079 1.2486 29.7976 1.26644 29.8871L1.26818 29.8933L1.27497 29.9412L1.3124 29.9093C1.5186 29.7325 1.81131 29.6208 2.07026 29.5202L2.07453 29.5189L2.59372 29.3214C3.10787 29.1262 3.37422 29.0109 3.60191 28.893C3.54003 28.9668 3.46326 29.0624 3.34906 29.2095L3.14356 29.471L2.28873 30.5388C2.01995 30.8861 1.98305 30.9328 1.7745 31.1685L1.75979 31.1832L1.77206 31.2028C1.81749 31.274 1.85066 31.3378 1.87694 31.4065C1.90523 31.4775 1.91985 31.5562 1.939 31.6322L1.94144 31.6495L1.94936 31.6863L1.9813 31.6668C2.22981 31.5267 2.49554 31.4212 2.74648 31.3255C3.29074 31.1194 3.7854 30.9402 4.25855 30.7783Z" fill="#FEFEFE"/>
<path fill-rule="evenodd" clip-rule="evenodd" d="M4.50748 32.3608C5.23844 31.9851 5.31321 31.9507 5.57338 31.9263L5.61942 31.9212L5.59296 31.8821L5.58312 31.8698C5.52611 31.7888 5.4678 31.7029 5.42253 31.617C5.37405 31.526 5.33663 31.4329 5.29607 31.3249L5.28005 31.2832L5.25011 31.3199C5.20032 31.3813 5.16594 31.4206 5.01989 31.5213C4.915 31.5948 4.85242 31.6342 4.28535 31.9532C4.28657 31.9532 4.00125 32.1053 4.00125 32.1053C3.68085 32.2748 3.41085 32.4146 3.04902 32.5865C2.73098 32.7387 2.6482 32.7462 2.54262 32.7534L2.49414 32.7583L2.52365 32.7952C2.57578 32.8687 2.64385 32.9597 2.69729 33.0601C2.7402 33.1413 2.7765 33.2297 2.81941 33.3523L2.83543 33.4014L2.86598 33.3622C2.96851 33.2272 3.01334 33.1878 3.28395 33.0308C3.61653 32.8393 3.86198 32.702 4.22216 32.5129L4.50748 32.3608Z" fill="#FEFEFE"/>
<path fill-rule="evenodd" clip-rule="evenodd" d="M7.24661 34.6142L7.29379 34.6092L7.34105 34.5995L7.30972 34.5651C7.25645 34.5012 7.19987 34.4349 7.15269 34.3637C7.12206 34.3196 7.09377 34.2705 7.07227 34.224C7.04355 34.1723 7.02004 34.1257 6.99802 34.0765L6.98262 34.047L6.95511 34.0668C6.95259 34.0716 6.94954 34.0716 6.9465 34.0765C6.84274 34.1698 6.51147 34.3048 5.95911 34.4766C5.95911 34.4766 4.78467 34.8373 4.46984 34.9331C4.73497 34.5699 4.81165 34.4693 5.28237 33.8679L5.50328 33.5831C5.67327 33.3623 5.75978 33.2495 5.83838 33.1562C6.01246 32.9449 6.10151 32.9131 6.14015 32.8983C6.14389 32.896 6.14633 32.8934 6.14938 32.8934L6.18376 32.8787L6.15982 32.8518L6.15495 32.8443C6.08488 32.7633 6.01377 32.6824 5.9531 32.594C5.89287 32.5081 5.84204 32.4147 5.78799 32.3092L5.76109 32.2578L5.74011 32.3118C5.70338 32.4001 5.67927 32.4394 5.62774 32.5277C5.53827 32.6726 5.44557 32.8076 5.16573 33.1952L4.32144 34.3318C4.24946 34.4349 4.12255 34.6017 3.998 34.7492C3.9066 34.862 3.8771 34.8915 3.83166 34.9356L3.81756 34.948L3.7998 34.9651L3.81565 34.9823L3.83053 35.0018C3.88441 35.0656 3.93968 35.1344 3.98625 35.2033C4.03969 35.2793 4.08695 35.3651 4.12621 35.4389L4.13918 35.4608L4.1625 35.4511C4.48655 35.3137 4.61337 35.2719 5.06886 35.1443C5.6603 34.9724 6.14015 34.8448 6.58023 34.7466C6.92561 34.6607 7.10247 34.6337 7.24661 34.6142Z" fill="#FEFEFE"/>
<path fill-rule="evenodd" clip-rule="evenodd" d="M6.43581 37.6851C6.3412 37.6041 6.27496 37.533 6.24311 37.4962C5.93516 37.1549 5.94795 37.1231 6.18723 36.9046C6.18723 36.9046 6.64558 36.4898 6.74254 36.4014C6.97024 36.6421 7.09602 36.782 7.22362 36.9538C7.30048 37.0618 7.31327 37.1058 7.33416 37.231L7.34339 37.2924L7.38334 37.2434C7.43843 37.1697 7.47899 37.1208 7.56055 37.0494C7.65264 36.966 7.70652 36.9268 7.79748 36.8679L7.86058 36.826L7.78573 36.8188L7.77911 36.8163C7.71331 36.8089 7.66787 36.804 7.60294 36.7623C7.5085 36.7008 7.38142 36.5586 7.33956 36.512C7.20029 36.3574 7.12422 36.2641 7.03152 36.1438L7.35984 35.8444C7.46785 35.7486 7.59432 35.6381 7.714 35.54C7.82315 35.6503 7.88574 35.7142 7.984 35.8247C8.31049 36.183 8.31781 36.2542 8.29195 36.4432L8.27977 36.5316L8.33748 36.4678C8.39135 36.4088 8.43679 36.3622 8.48954 36.3132C8.53253 36.2763 8.57675 36.2395 8.62219 36.2051C8.65169 36.1805 8.68103 36.156 8.71297 36.129L8.73516 36.1093L8.71549 36.0897C8.50555 35.8761 8.26253 35.6258 8.05512 35.3951C7.7772 35.0882 7.68084 34.9606 7.62984 34.8895L7.62192 34.8797L7.59859 34.8477L7.57665 34.882C7.43225 35.1251 7.34147 35.211 6.96232 35.5619L6.93969 35.5841L6.13378 36.3132C5.93872 36.4874 5.71364 36.6862 5.51048 36.8163C5.42997 36.8653 5.37662 36.8924 5.28514 36.9268L5.24414 36.939L5.27722 36.9708C5.4466 37.1208 5.56758 37.2557 5.83262 37.5477L5.84246 37.5576C6.08722 37.8299 6.23632 38.0117 6.33502 38.1345C6.36705 38.1736 6.39334 38.2056 6.41675 38.2302L6.43259 38.2522L6.45226 38.2375C6.63575 38.1098 6.68614 38.0804 6.92237 37.9748L7.00828 37.9379L6.91619 37.9232C6.77823 37.9036 6.6616 37.884 6.43581 37.6851Z" fill="#FEFEFE"/>
<path fill-rule="evenodd" clip-rule="evenodd" d="M9.48118 37.3167L9.71314 37.4933C9.87765 37.6309 9.96843 37.7756 9.98062 37.9205C9.99045 38.0457 9.94258 38.1732 9.83578 38.2984C9.79287 38.35 9.65787 38.5071 9.4199 38.5194C9.18663 38.5267 9.01725 38.3845 8.89209 38.2789C8.83316 38.2298 8.79878 38.1978 8.74969 38.1462L9.05895 37.7806L9.06634 37.7707C9.21736 37.594 9.2896 37.5081 9.48118 37.3167ZM10.2358 38.6371C10.4212 38.4187 10.5071 38.2027 10.49 37.9991C10.4631 37.6749 10.1906 37.4467 10.0432 37.3216C9.95607 37.2502 9.87147 37.1791 9.79775 37.1226C9.74134 37.0785 9.6946 37.0392 9.65552 37.0074C9.40754 36.7988 9.37072 36.7545 9.2896 36.6588L9.25905 36.6221L9.24304 36.6686C9.18907 36.838 9.0196 37.0883 8.72636 37.4369L8.22692 38.0284C7.85126 38.4678 7.61329 38.7404 7.4715 38.8753C7.36592 38.9685 7.32431 38.9808 7.26956 38.9979L7.26173 39.0005L7.20898 39.0176L7.25364 39.0495C7.34633 39.1133 7.43538 39.1771 7.5138 39.2459C7.59492 39.3147 7.67221 39.3884 7.74698 39.4619L7.75386 39.4693L7.78998 39.5037L7.79982 39.4545L7.80278 39.4473C7.81766 39.3809 7.82984 39.3294 7.898 39.2189C7.97277 39.1011 8.05754 38.9857 8.25878 38.7329C8.25878 38.7329 8.4662 38.49 8.52878 38.4163L8.7644 38.625C8.76205 38.7894 8.75587 38.912 8.65647 39.408C8.61591 39.6116 8.56551 39.8425 8.49205 40.0706L8.48709 40.0879L8.50189 40.1001L8.56682 40.1443C8.65647 40.2105 8.71287 40.2498 8.78894 40.3161C8.87007 40.3825 8.93248 40.4486 8.98905 40.51L9.04676 40.5738L9.03692 40.4903C9.00742 40.2522 9.03196 40.0975 9.09698 39.6803L9.09951 39.6656C9.09951 39.6656 9.19882 39.0545 9.22345 38.9023C9.43444 38.9881 9.9082 39.025 10.2358 38.6371Z" fill="#FEFEFE"/>
<path fill-rule="evenodd" clip-rule="evenodd" d="M11.5191 40.0877C11.518 40.0877 11.405 39.901 11.405 39.901C11.2982 39.7195 11.1769 39.5108 11.3217 39.285C11.4418 39.1009 11.7144 38.9905 12.0298 39.1942C12.3317 39.3857 12.3673 39.6409 12.3833 39.7489L12.3919 39.8226L12.4311 39.7636C12.5623 39.5723 12.6042 39.5157 12.7674 39.3685L12.7919 39.3439L12.7674 39.3242C12.7281 39.2925 12.711 39.2752 12.6337 39.2015L12.5623 39.1378L12.5611 39.1354C12.4925 39.0714 12.371 38.9537 12.2642 38.8849C11.7144 38.5338 11.1449 38.6124 10.8442 39.0812C10.5988 39.4642 10.7498 39.7661 10.8491 39.9624C10.8503 39.9624 11.0394 40.2987 11.0394 40.3011L11.0419 40.3036C11.1682 40.5173 11.3008 40.7355 11.1584 40.9566C11.0958 41.0572 11.0001 41.1235 10.8897 41.1481C10.7435 41.1824 10.5754 41.1382 10.4012 41.0278C10.0748 40.8167 10.0564 40.6251 10.0428 40.4534V40.4485L10.0355 40.3823L9.99366 40.4314C9.8121 40.6547 9.77406 40.6889 9.64272 40.7995L9.62305 40.8167L9.63776 40.8364C9.73968 40.9761 9.78747 41.0399 9.96433 41.1824C10.0415 41.2414 10.1115 41.2904 10.1852 41.3371C10.6147 41.6143 10.9375 41.5946 11.0909 41.558C11.3192 41.5088 11.5217 41.3616 11.658 41.1504C11.9156 40.748 11.7156 40.4164 11.5217 40.0926L11.5191 40.0877Z" fill="#FEFEFE"/>
<path fill-rule="evenodd" clip-rule="evenodd" d="M14.0896 39.9237L14.0479 39.9089L14.0246 39.8991C13.935 39.8646 13.8405 39.8328 13.7546 39.7861C13.66 39.7396 13.5705 39.6782 13.4821 39.6216L13.4428 39.5947L13.4403 39.6413C13.4355 39.7198 13.4317 39.7763 13.3703 39.9407C13.3274 40.061 13.2954 40.1298 13.0182 40.7139L12.8708 41.0012C12.7076 41.3251 12.5653 41.595 12.3688 41.9436C12.1958 42.248 12.1321 42.302 12.0511 42.3708L12.0117 42.4026L12.0608 42.4148C12.1419 42.442 12.2511 42.4813 12.3542 42.5328C12.456 42.5868 12.5493 42.6481 12.6217 42.7044L12.6623 42.7316L12.6646 42.6801C12.6721 42.5131 12.6843 42.4592 12.8169 42.1719C12.9776 41.8258 13.1016 41.573 13.2881 41.2097L13.433 40.92C13.817 40.1937 13.8564 40.1225 14.0552 39.9529L14.0896 39.9237Z" fill="#FEFEFE"/>
<path fill-rule="evenodd" clip-rule="evenodd" d="M15.9264 41.1732C16.2932 41.3253 16.3276 41.3524 16.438 41.5168L16.4737 41.5683L16.4871 41.507C16.5068 41.4186 16.5288 41.34 16.5559 41.2689C16.5865 41.1929 16.6247 41.1142 16.6713 41.0284L16.6885 41.0014L16.6565 40.9891C16.3498 40.8983 16.0405 40.7829 15.5018 40.5742C14.9409 40.3607 14.5468 40.2036 14.4426 40.1373L14.4107 40.1152L14.4009 40.1546C14.3934 40.184 14.3873 40.2109 14.3813 40.2404C14.3652 40.3068 14.3517 40.3631 14.3273 40.4245C14.3001 40.4982 14.2584 40.567 14.2167 40.6307L14.1787 40.6921L14.2474 40.6699C14.4033 40.6257 14.4782 40.6185 14.8008 40.7387C14.8008 40.7387 15.0586 40.837 15.1372 40.8688C15.0783 41.0676 14.9875 41.3425 14.6905 42.1156C14.2621 43.2276 14.148 43.2938 14.1062 43.3186L14.1039 43.3233L14.0498 43.3552L14.1113 43.37L14.1333 43.3773C14.2364 43.4068 14.337 43.4313 14.4351 43.468C14.5308 43.505 14.6267 43.5516 14.7113 43.6031L14.7567 43.6302L14.7519 43.5761C14.7444 43.51 14.7407 43.4657 14.7764 43.3135C14.8328 43.0706 14.996 42.6312 15.1494 42.2361C15.3801 41.6346 15.5053 41.3351 15.628 41.0578L15.9264 41.1732Z" fill="#FEFEFE"/>
<path fill-rule="evenodd" clip-rule="evenodd" d="M17.7491 42.3581L17.7515 42.3902C17.7515 42.3925 17.7761 42.9793 17.7835 43.1288C17.6496 43.1044 17.5123 43.0774 17.3809 43.0479C17.2434 43.0111 17.106 42.9694 16.9832 42.9326L17.7504 41.6636L17.7491 41.7372C17.7417 42.0073 17.7442 42.1203 17.7491 42.3581ZM18.353 44.1746C18.3432 44.0888 18.3345 43.9733 18.3272 43.8652C18.3186 43.7572 18.3111 43.6395 18.3015 43.5535C18.3015 43.5561 18.2229 42.3336 18.2229 42.3336C18.1947 41.887 18.1935 41.7372 18.2105 41.4009V41.3765L18.186 41.3715C18.0682 41.3592 17.9627 41.3445 17.8608 41.3175C17.7491 41.2905 17.6361 41.2464 17.5368 41.212L17.5123 41.2021L17.5037 41.2267C17.4424 41.369 17.3907 41.4746 17.16 41.8502L16.372 43.1264C16.0346 43.6691 15.9757 43.7402 15.7609 43.961L15.7217 44.0002L15.7781 44.0076C15.8763 44.0174 15.9695 44.0298 16.0578 44.0494C16.1523 44.0714 16.2395 44.1083 16.3278 44.1426L16.3573 44.1575L16.3622 44.1205C16.3697 44.0789 16.372 44.0666 16.3782 44.0445C16.3917 43.9905 16.4064 43.9635 16.5758 43.6444L16.593 43.6149C16.593 43.6149 16.7316 43.367 16.7698 43.3008H16.7722C16.9575 43.3352 17.1318 43.3621 17.3072 43.4063C17.4655 43.4479 17.6276 43.4947 17.7945 43.5511L17.8128 43.9733C17.8166 44.1328 17.819 44.2826 17.8006 44.3636C17.7933 44.3882 17.7835 44.4152 17.7724 44.4348C17.77 44.4446 17.7663 44.4544 17.7638 44.4594L17.7491 44.4937L17.7858 44.496C17.873 44.506 17.9871 44.5182 18.1025 44.5452C18.1957 44.5672 18.2953 44.6017 18.4168 44.6507L18.4904 44.6827L18.451 44.6163C18.4094 44.5379 18.3762 44.4838 18.353 44.1746Z" fill="#FEFEFE"/>
<path fill-rule="evenodd" clip-rule="evenodd" d="M20.9968 41.8327L20.9256 41.813C20.8445 41.7861 20.6753 41.7346 20.544 41.7197C19.8972 41.6486 19.4234 41.9725 19.3621 42.5272C19.313 42.979 19.5804 43.1802 19.7585 43.3127C19.7597 43.3152 20.0764 43.5288 20.0776 43.5288L20.0813 43.5313C20.2887 43.6688 20.5059 43.8087 20.4776 44.0663C20.4642 44.1842 20.4077 44.2848 20.3194 44.3585C20.2028 44.4516 20.0345 44.4885 19.8308 44.4665C19.4431 44.4246 19.3425 44.2578 19.254 44.113L19.2492 44.1082L19.2147 44.0492L19.2 44.113C19.1362 44.3928 19.119 44.4418 19.0479 44.599L19.0381 44.6211L19.0601 44.6334C19.216 44.7168 19.2871 44.751 19.5069 44.7978C19.5928 44.8149 19.6812 44.8273 19.7731 44.8395C20.2812 44.8959 20.561 44.7365 20.6826 44.6357C20.8667 44.4934 20.9821 44.2701 21.0115 44.0172C21.063 43.5435 20.7342 43.3349 20.4175 43.1286H20.4126L20.2285 43.0132C20.0518 42.8979 19.8504 42.763 19.8799 42.4978C19.8923 42.3824 19.9512 42.2769 20.0407 42.2033C20.1499 42.1174 20.2997 42.0806 20.4716 42.1002C20.8274 42.137 20.9686 42.3457 21.0361 42.4414L21.0778 42.5004L21.0852 42.4316C21.1196 42.2033 21.1294 42.137 21.2104 41.926L21.2225 41.8965L21.1918 41.8892C21.1366 41.8794 21.117 41.8696 20.9968 41.8327Z" fill="#FEFEFE"/>
<path fill-rule="evenodd" clip-rule="evenodd" d="M23.9016 43.6107L24.2194 42.1625L24.2416 42.2337C24.3201 42.4915 24.3593 42.592 24.4428 42.8179L24.455 42.8497C24.455 42.8497 24.6711 43.4019 24.7226 43.5395C24.59 43.5591 24.4503 43.5789 24.3176 43.5886C24.1803 43.6033 24.0452 43.6057 23.9016 43.6107ZM25.6013 44.3421C25.5647 44.2636 25.5179 44.1604 25.4762 44.0573C25.432 43.9567 25.3878 43.8512 25.3534 43.7725C25.3534 43.7752 24.8847 42.6435 24.8847 42.6435C24.7202 42.2484 24.6662 42.1061 24.568 41.7648L24.5631 41.7402L24.5361 41.7453C24.433 41.7673 24.3201 41.7893 24.2145 41.7992C24.1017 41.809 23.9887 41.8066 23.871 41.8017H23.8462L23.8439 41.8286C23.833 41.9906 23.8169 42.1061 23.72 42.5282L23.3874 43.9911C23.2463 44.5875 23.2155 44.6932 23.0781 44.9802L23.0547 45.0294L23.1063 45.0147C23.2034 44.9949 23.2978 44.9754 23.3874 44.9681C23.4844 44.9557 23.5813 44.9632 23.6722 44.9681H23.7065L23.6991 44.9337C23.693 44.8944 23.6905 44.8821 23.6882 44.8574C23.6843 44.8011 23.6882 44.7741 23.7469 44.4108L23.7531 44.3814C23.7531 44.3814 23.8058 44.1041 23.8193 44.0278H23.8268C24.0133 43.9984 24.1851 43.9691 24.3668 43.9543C24.5336 43.942 24.7055 43.9347 24.8698 43.9347L25.0244 44.3299C25.0811 44.4772 25.1302 44.6195 25.1374 44.698C25.1424 44.725 25.1374 44.7519 25.1374 44.7766C25.1374 44.7864 25.135 44.7938 25.135 44.806L25.1326 44.8404L25.1693 44.833C25.2945 44.8011 25.3927 44.7814 25.4836 44.7741C25.5793 44.7668 25.6849 44.7668 25.8174 44.7766L25.896 44.7814L25.8369 44.7299C25.7708 44.671 25.7242 44.6268 25.6013 44.3421Z" fill="#FEFEFE"/>
<path fill-rule="evenodd" clip-rule="evenodd" d="M26.799 42.8811C26.7769 42.7828 26.6909 42.4122 26.6909 42.4122C26.6369 42.1766 26.6149 42.0735 26.5706 41.8011L26.8504 41.72C27.0615 41.6734 27.2309 41.6832 27.3537 41.7642C27.4617 41.828 27.5329 41.9434 27.5695 42.1029C27.5869 42.1693 27.6335 42.368 27.4984 42.5692C27.3684 42.7608 27.1498 42.8123 26.9903 42.8467C26.9192 42.8663 26.87 42.8738 26.799 42.8811ZM28.2298 43.5119C28.2298 43.5119 27.7954 43.0652 27.6898 42.9548C27.8863 42.8393 28.2004 42.481 28.0826 41.9827C27.8838 41.1262 27.2259 41.2782 26.9119 41.3543C26.8013 41.3788 26.7007 41.4059 26.6124 41.4303C26.5388 41.4476 26.4798 41.4647 26.4283 41.4746C26.1116 41.5508 26.0552 41.5531 25.93 41.5606L25.8809 41.5654L25.9104 41.6046C26.0135 41.7495 26.1141 42.0343 26.2171 42.4761L26.394 43.232C26.5264 43.8138 26.6026 44.1524 26.6197 44.3415C26.6345 44.4814 26.6197 44.5256 26.6001 44.5771L26.5976 44.5845L26.5804 44.636L26.6321 44.6189C26.7351 44.5869 26.8406 44.555 26.9437 44.5282C27.0418 44.5084 27.1426 44.4937 27.2383 44.4766L27.2678 44.4691L27.3169 44.4617L27.2873 44.4275L27.2776 44.4176C27.2334 44.3685 27.199 44.3243 27.1524 44.2041C27.1008 44.074 27.059 43.9315 26.9782 43.6272C26.9805 43.6272 26.9068 43.3181 26.8824 43.2222L27.194 43.1584C27.3216 43.2566 27.415 43.3352 27.7561 43.7081C27.8961 43.8653 28.0555 44.0446 28.1906 44.2385L28.2029 44.2555L28.2225 44.2483L28.2914 44.2238C28.3992 44.1917 28.4656 44.1697 28.5662 44.1477C28.657 44.1255 28.7429 44.1132 28.8411 44.1035L28.9245 44.096L28.8509 44.0544C28.6423 43.9315 28.5293 43.8162 28.2298 43.5119Z" fill="#FEFEFE"/>
<path fill-rule="evenodd" clip-rule="evenodd" d="M31.8254 42.5103C31.7029 42.2649 31.5701 41.9408 31.4156 41.5628L31.4082 41.5432L31.2757 41.2168C31.153 40.8903 31.018 40.5246 30.9568 40.2865C30.9222 40.1661 30.9174 40.0999 30.9076 40.0212L30.9051 40.0017L30.9025 39.96L30.8658 39.982L30.8339 39.9969C30.753 40.0409 30.6743 40.0852 30.5908 40.1195C30.4952 40.1563 30.392 40.1857 30.2939 40.2103L30.2891 40.2153L30.2449 40.225L30.2743 40.257C30.3504 40.3404 30.4093 40.4043 30.5541 40.7135C30.5982 40.8069 30.6377 40.9 30.6842 41.0081L30.7479 41.1555C30.7479 41.1555 30.8093 41.305 30.8313 41.3664L30.7235 41.413C30.5492 41.4917 30.3969 41.5579 30.2301 41.6267C30.0213 41.71 29.8202 41.7862 29.6042 41.8623L29.5329 41.688C29.4594 41.5088 29.3291 41.175 29.2728 40.9615C29.2409 40.8289 29.2433 40.765 29.2433 40.6889L29.2458 40.6792L29.2482 40.6326L29.204 40.6546L29.1894 40.6621C29.1034 40.7087 29.0175 40.7553 28.9218 40.797C28.8284 40.8312 28.7278 40.8607 28.6321 40.8878L28.62 40.8902L28.5732 40.9025L28.6075 40.937C28.6518 40.9812 28.7058 41.0375 28.8334 41.2781C28.9339 41.4842 29.0519 41.7666 29.1797 42.071L29.3095 42.3924C29.4274 42.6844 29.5404 42.9595 29.6656 43.335C29.7491 43.5828 29.7491 43.6493 29.7416 43.7768L29.7392 43.8235L29.7785 43.8013L29.7907 43.7964C29.884 43.7473 29.9797 43.6958 30.0729 43.6565C30.1711 43.6148 30.2743 43.5879 30.3799 43.5607L30.424 43.546L30.3896 43.5117C30.2865 43.4136 30.2079 43.3424 29.8986 42.5887C29.8986 42.5913 29.7907 42.3213 29.7589 42.2378C29.9821 42.1347 30.1835 42.0414 30.3724 41.9678C30.5443 41.8966 30.7258 41.8279 30.9811 41.742L31.1236 42.1004C31.3077 42.5913 31.4058 42.8613 31.4156 43.1018V43.146L31.4574 43.124C31.5554 43.0674 31.6488 43.0185 31.7421 42.9791C31.8329 42.9399 31.9287 42.9152 32.0268 42.8907L32.0414 42.8858L32.0858 42.8736L32.0513 42.8391C31.9925 42.7852 31.9385 42.7335 31.8254 42.5103Z" fill="#FEFEFE"/>
<path fill-rule="evenodd" clip-rule="evenodd" d="M33.9493 39.1797C33.6914 38.7404 33.6374 38.6152 33.5958 38.4237L33.5833 38.377L33.5516 38.4065C33.4828 38.463 33.4116 38.5218 33.338 38.571C33.2642 38.6126 33.1957 38.6447 33.0999 38.6839L33.0532 38.701L33.095 38.7305C33.1662 38.7796 33.203 38.8139 33.2642 38.8999C33.3085 38.9612 33.4608 39.1994 33.5811 39.4006L34.0595 40.1787C34.2093 40.4265 34.3837 40.7114 34.3222 40.9618C34.2854 41.1066 34.1848 41.2268 34.0007 41.3372C33.6619 41.5458 33.3994 41.5385 33.1735 41.32C33.0752 41.2292 32.9919 41.0918 32.874 40.9003L32.4003 40.1223C32.3045 39.9651 32.1744 39.7565 32.1058 39.5725C32.0614 39.4546 32.0614 39.4104 32.064 39.3613L32.0714 39.2975L32.0223 39.3343L32.0198 39.3368C31.9364 39.4029 31.848 39.4718 31.7524 39.5306C31.6639 39.5846 31.5706 39.6263 31.4701 39.6729L31.4209 39.6951L31.4676 39.7196C31.5804 39.786 31.6321 39.8154 31.9806 40.375L32.5403 41.2954C32.5427 41.298 32.545 41.3005 32.545 41.3005C32.7586 41.622 32.9969 41.9877 33.4362 41.9877C33.6619 41.99 33.9467 41.8675 34.1358 41.752C34.3346 41.6318 34.6069 41.4428 34.715 41.1655C34.8721 40.7653 34.6953 40.4389 34.5383 40.1518C34.5383 40.1493 33.9493 39.1797 33.9493 39.1797Z" fill="#FEFEFE"/>
<path fill-rule="evenodd" clip-rule="evenodd" d="M35.7825 38.3969L35.7777 38.3992L35.5665 38.4532C35.3604 38.4951 35.1247 38.5466 34.9529 38.3405C34.8128 38.1685 34.7957 37.8765 35.0829 37.636C35.3604 37.4102 35.6057 37.4519 35.7236 37.4739L35.7898 37.4863L35.7456 37.4299C35.6057 37.2432 35.5665 37.1918 35.4733 36.9904L35.4609 36.9609L35.4364 36.9758C35.3921 37.0052 35.3725 37.0174 35.2842 37.0666L35.1935 37.1132C35.1174 37.1524 34.9603 37.2383 34.862 37.3218C34.5946 37.5402 34.4324 37.8102 34.4055 38.0852C34.3859 38.3159 34.4571 38.5417 34.6117 38.7307C34.9013 39.0817 35.2328 39.0302 35.4511 38.9982C35.4537 38.9982 35.8317 38.9198 35.8317 38.9198H35.8341C36.077 38.8631 36.3275 38.8068 36.4943 39.008C36.5681 39.0989 36.6047 39.2094 36.5925 39.3223C36.5778 39.472 36.487 39.6193 36.3275 39.7494C36.0304 39.9973 35.839 39.953 35.6745 39.9162L35.6648 39.9113L35.5984 39.8992L35.6353 39.9555C35.7924 40.1937 35.8168 40.2426 35.8757 40.4023L35.8881 40.4244L35.9126 40.4194C36.0795 40.363 36.1531 40.3359 36.3396 40.2108C36.4183 40.1592 36.487 40.1076 36.5558 40.0512C36.951 39.7248 37.0319 39.4156 37.0467 39.2559C37.0686 39.0227 36.9926 38.7871 36.8305 38.5909C36.5286 38.2251 36.1507 38.3134 35.7825 38.3969Z" fill="#FEFEFE"/>
<path fill-rule="evenodd" clip-rule="evenodd" d="M38.1586 37.8056C37.8862 37.5527 37.685 37.3564 37.3855 37.0618L37.1572 36.8335C36.5852 36.2443 36.5287 36.1855 36.4306 35.9449L36.4134 35.9033L36.384 35.9401L36.3791 35.9473C36.3151 36.026 36.249 36.107 36.1778 36.1782C36.1018 36.2566 36.0134 36.3254 35.9373 36.3843L35.9004 36.4138L35.9421 36.4334C36.0157 36.4604 36.0648 36.48 36.2048 36.5905C36.3079 36.6715 36.3594 36.7158 36.8357 37.1674C36.8357 37.1649 37.0639 37.3932 37.0639 37.3932C37.324 37.651 37.5376 37.8692 37.8051 38.1615C38.0432 38.4216 38.0752 38.4953 38.112 38.5959L38.1316 38.6425L38.1586 38.6032C38.2102 38.5297 38.2789 38.4364 38.36 38.3578C38.4261 38.2939 38.4999 38.2303 38.6054 38.1542L38.6447 38.127L38.5979 38.1074C38.4386 38.0485 38.3869 38.019 38.1586 37.8056Z" fill="#FEFEFE"/>
<path fill-rule="evenodd" clip-rule="evenodd" d="M40.1441 35.5276L40.0949 35.4491V35.5422C40.0949 35.6823 40.0949 35.8001 39.933 36.0504C39.8692 36.1584 39.8102 36.2321 39.7785 36.2714C39.4888 36.6296 39.4544 36.6198 39.1991 36.4186C39.1991 36.4186 38.7204 36.0333 38.6173 35.9472C38.8161 35.6871 38.9341 35.5448 39.0862 35.3901C39.1844 35.2968 39.2237 35.2748 39.344 35.238L39.4029 35.2158L39.3488 35.1889C39.268 35.1421 39.2113 35.1078 39.1304 35.0415C39.0249 34.9582 38.9782 34.9065 38.9119 34.8354L38.8629 34.7789L38.8677 34.8551V34.8599C38.8702 34.9262 38.8726 34.9705 38.8407 35.044C38.7941 35.1447 38.6737 35.2944 38.6346 35.341C38.497 35.5104 38.4136 35.6012 38.3178 35.7043L37.9693 35.4245C37.859 35.3338 37.7337 35.2256 37.6159 35.1227C37.7044 35.0022 37.7582 34.9287 37.8539 34.8108C38.1583 34.4354 38.2271 34.4157 38.4187 34.4108H38.5045L38.4358 34.3617C38.362 34.3151 38.313 34.2807 38.2589 34.2365C38.2123 34.1996 38.1706 34.1627 38.129 34.1188C38.1019 34.0966 38.0725 34.072 38.043 34.0451L38.0209 34.0254L38.0038 34.0474C37.8516 34.2513 37.6282 34.5507 37.4195 34.8083C37.1618 35.1274 37.0465 35.2428 36.9851 35.3043L36.9752 35.3141L36.9482 35.3435L36.9851 35.3607C37.2503 35.4662 37.3385 35.5349 37.7608 35.8663L37.7778 35.881L38.6248 36.5634C38.826 36.7328 39.0592 36.9218 39.2163 37.1034C39.2777 37.1722 39.3119 37.2236 39.3611 37.3095L39.3833 37.3464L39.4077 37.3095C39.5328 37.1132 39.6483 36.9708 39.9011 36.6568C40.1271 36.3793 40.284 36.205 40.3895 36.0873C40.424 36.048 40.4535 36.0136 40.478 35.9866L40.4927 35.9694L40.4755 35.9523C40.3233 35.7926 40.284 35.746 40.1441 35.5276Z" fill="#FEFEFE"/>
<path fill-rule="evenodd" clip-rule="evenodd" d="M41.6781 32.4668C41.1847 32.1771 40.7356 31.9021 40.3085 31.6273C39.9967 31.426 39.901 31.3302 39.82 31.2346L39.7905 31.2051L39.7734 31.2395L39.7684 31.2467C39.7318 31.3302 39.6924 31.4112 39.6531 31.4774C39.5844 31.5929 39.528 31.6788 39.4861 31.7304L39.4518 31.7722L39.5035 31.7769C39.6015 31.7843 39.7636 31.799 40.4166 32.1821L40.8927 32.4643L40.9025 32.4692C41.0866 32.5772 41.3714 32.7467 41.5873 32.8595C41.5186 32.857 41.4327 32.857 41.3025 32.8595H40.8999L39.5917 32.8521H39.577C39.0861 32.8226 39.0346 32.8201 38.8701 32.7932L38.8456 32.7907L38.8406 32.8103C38.7744 32.97 38.6885 33.1173 38.6565 33.1712C38.5976 33.2719 38.5386 33.3577 38.4527 33.4658L38.4111 33.5198L38.4799 33.5124C38.6149 33.4878 38.6787 33.4756 39.0271 33.6498C39.4985 33.883 40.495 34.4671 40.8681 34.7469C41.0424 34.8771 41.1014 34.9458 41.1552 35.0048L41.1847 35.0415L41.1994 34.9973L41.2044 34.9826C41.2387 34.8944 41.2682 34.8133 41.3149 34.7348C41.359 34.6611 41.418 34.5924 41.4768 34.5212L41.4818 34.5163L41.5113 34.4795L41.4694 34.4746C41.1971 34.4205 40.9245 34.261 40.6866 34.1188L40.2053 33.8389C39.7342 33.5614 39.4789 33.4264 39.2431 33.3161C39.339 33.321 39.4665 33.3209 39.6556 33.3184L39.9795 33.3161C39.977 33.3161 41.3492 33.3135 41.3492 33.3135C41.7861 33.3086 41.8426 33.3111 42.1617 33.3234L42.1813 33.3258L42.1912 33.3062C42.2158 33.2251 42.2426 33.1614 42.2844 33.0975C42.3236 33.0288 42.3727 32.9675 42.4243 32.9036L42.4316 32.8938L42.4538 32.8692L42.4219 32.8521C42.1544 32.7467 41.9088 32.6042 41.6781 32.4668Z" fill="#FEFEFE"/>
<path fill-rule="evenodd" clip-rule="evenodd" d="M42.7387 29.8406C42.2995 29.6591 42.0099 29.9192 41.7276 30.167L41.7226 30.1696L41.5606 30.3181C41.4012 30.4567 41.2145 30.6088 40.969 30.5095C40.8635 30.4691 40.7751 30.3793 40.731 30.2751C40.6771 30.1462 40.6818 29.9941 40.7482 29.832C40.8856 29.5007 41.1213 29.4209 41.2342 29.384L41.3004 29.362L41.2367 29.3325C41.0206 29.2392 40.9641 29.2073 40.7849 29.0747L40.7603 29.0576L40.7457 29.0822C40.7187 29.1264 40.7089 29.1461 40.6598 29.2221L40.5984 29.3178C40.5518 29.389 40.4537 29.5363 40.402 29.6591C40.1567 30.2603 40.3383 30.8052 40.8537 31.0163C41.2759 31.188 41.5409 30.9869 41.7203 30.8519L42.0172 30.6051L42.0197 30.6015C42.2086 30.4396 42.4 30.269 42.643 30.3658C42.7511 30.4124 42.8345 30.496 42.8788 30.5978C42.9375 30.7365 42.9278 30.9083 42.8494 31.0999C42.702 31.4606 42.5156 31.5097 42.3511 31.5563L42.3412 31.5588L42.2773 31.576L42.3363 31.608C42.5867 31.7479 42.6309 31.7772 42.7633 31.8878L42.7805 31.9049L42.7977 31.8852C42.918 31.7601 42.972 31.7011 43.0775 31.5024C43.1193 31.4213 43.1586 31.3452 43.1928 31.2594C43.3844 30.783 43.3107 30.4714 43.2469 30.3266C43.1586 30.1094 42.9769 29.9389 42.7387 29.8406Z" fill="#FEFEFE"/>
<path fill-rule="evenodd" clip-rule="evenodd" d="M43.5267 28.5391C43.1611 28.4423 42.891 28.3662 42.4958 28.2495L42.184 28.1587C41.4157 27.9182 41.3226 27.8862 41.1214 27.723L41.0844 27.6924L41.0772 27.7377C41.0624 27.8409 41.0428 27.9452 41.0132 28.0471C40.9838 28.1489 40.9421 28.2459 40.9003 28.3403L40.8979 28.3428L40.8809 28.3871L40.9274 28.3834C41.0084 28.3723 41.0599 28.3662 41.2342 28.3968C41.3618 28.4177 41.4256 28.4325 42.0614 28.603C42.0589 28.603 42.3682 28.6938 42.3682 28.6938C42.7192 28.7995 43.0138 28.8901 43.3868 29.0178C43.7183 29.1332 43.7845 29.1871 43.8655 29.2547L43.9024 29.2865L43.9071 29.2387C43.9244 29.1136 43.9416 29.0178 43.9686 28.9271C43.998 28.8215 44.0471 28.7184 44.0864 28.6337L44.1086 28.5882L44.0569 28.5932C43.8926 28.6177 43.8311 28.6165 43.5267 28.5391Z" fill="#FEFEFE"/>
<path fill-rule="evenodd" clip-rule="evenodd" d="M43.78 25.6908C43.3137 25.6036 43.0779 25.913 42.8521 26.2135L42.8497 26.2184L42.7171 26.394C42.5871 26.5608 42.4397 26.7499 42.1771 26.7008C41.9586 26.6591 41.7549 26.4478 41.8262 26.0772C41.8924 25.7263 42.1084 25.6036 42.2115 25.5422L42.2704 25.5077L42.204 25.4931C41.9734 25.4416 41.9121 25.4269 41.7108 25.3286L41.6838 25.3164L41.6715 25.3445C41.6543 25.3974 41.6493 25.4169 41.6027 25.5299L41.5758 25.606C41.5413 25.6834 41.4776 25.8491 41.453 25.9791C41.3868 26.3166 41.4383 26.6283 41.5954 26.8554C41.723 27.0493 41.9218 27.1745 42.1649 27.2187C42.6115 27.3046 42.8324 27.0519 42.9797 26.8849C42.9797 26.8849 43.2227 26.5854 43.2227 26.5842L43.2276 26.5805C43.375 26.3816 43.5271 26.1778 43.7873 26.2269C43.9028 26.2491 44.0008 26.3128 44.0647 26.4062C44.1506 26.5303 44.1728 26.7033 44.1382 26.9019C44.0622 27.2849 43.8904 27.3733 43.7383 27.4493L43.7309 27.4543L43.672 27.4838L43.7358 27.5034C44.0131 27.5892 44.0573 27.6114 44.207 27.6924L44.2292 27.7046L44.2439 27.6826C44.3372 27.5352 44.3764 27.4667 44.4402 27.2505C44.4671 27.1584 44.4868 27.0739 44.5065 26.9904C44.5998 26.4861 44.4624 26.1939 44.3739 26.065C44.2389 25.8711 44.0303 25.7386 43.78 25.6908Z" fill="#FEFEFE"/>
</g>
<defs>
<clipPath id="clip0_858_3520">
<rect width="45" height="44.913" fill="white" transform="translate(0 0.0898438)"/>
</clipPath>
</defs>
</svg>
