<svg width="2227" height="1574" viewBox="0 0 2227 1574" fill="none" xmlns="http://www.w3.org/2000/svg">
<path d="M850.516 118L492 1456H68L432.5 118H850.516Z" stroke="white" stroke-width="32"/>
<path d="M1646.52 120L1288 1458H864L1228.5 120H1646.52Z" stroke="white" stroke-width="32"/>
<path d="M903.945 107.798L906.488 116.526L1080.49 714.026L1081.73 718.304L1080.59 722.609L986.259 1077.61L925.409 1306.61L884.09 1462.11L880.93 1474H818.932L815.698 1462.24L776.179 1318.5H525L529.538 1298.89L582.538 1069.89L585.406 1057.5H704.42L651.698 865.741L650.567 861.626L651.636 857.494L843.136 116.994L846.237 105H870V102H902.393L903.945 107.798ZM843.32 1442H856.321L889.139 1318.5H809.366L843.32 1442ZM683.685 861.373L737.607 1057.5H958.491L1048.52 718.695L879.12 137H871.015L683.685 861.373Z" fill="white"/>
<path d="M903.945 107.798L906.488 116.526L1080.49 714.026L1081.73 718.304L1080.59 722.609L986.259 1077.61L925.409 1306.61L884.09 1462.11L880.93 1474H818.932L815.698 1462.24L776.179 1318.5H525L529.538 1298.89L582.538 1069.89L585.406 1057.5H704.42L651.698 865.741L650.567 861.626L651.636 857.494L843.136 116.994L846.237 105H870V102H902.393L903.945 107.798ZM843.32 1442H856.321L889.139 1318.5H809.366L843.32 1442ZM683.685 861.373L737.607 1057.5H958.491L1048.52 718.695L879.12 137H871.015L683.685 861.373Z" fill="white"/>
<path d="M1326 1318.5L1395.93 1057.5H1510.5L1583 1318.5H1326Z" fill="white" stroke="white" stroke-width="32"/>
<path d="M1620 1456H2044.52L1680.64 120H1648.64L1555 459.496L1455 836.996L1620 1456Z" fill="white" stroke="white" stroke-width="32"/>
</svg>
