<svg width="20" height="16" viewBox="0 0 20 16" fill="none" xmlns="http://www.w3.org/2000/svg">
<path d="M14 1C12.0625 1 10.5 2.59375 10.5 4.5C10.5 4.78125 10.25 5 10 5H7.25H6H4.5625C3.6875 5 3 5.71875 3 6.59375C3 6.8125 3.03125 7 3.09375 7.21875L4.15625 9.71875C4.21875 9.84375 4.21875 10 4.21875 10.125C4.21875 10.2812 4.21875 10.4375 4.15625 10.5625L3.90625 11.1562C3.59375 11.8438 3.5625 12.5938 3.75 13.3125L4.15625 14.8438C4.1875 14.9375 4.3125 15 4.40625 15H5.4375C5.625 15 5.75 14.8438 5.6875 14.6875L5.1875 12.9062C5.09375 12.5312 5.125 12.125 5.28125 11.75L5.53125 11.1562C5.65625 10.8438 5.75 10.5 5.75 10.125C5.75 10 5.71875 9.84375 5.6875 9.71875C5.6875 9.53125 5.71875 9.375 5.84375 9.25C5.96875 9.15625 6.15625 9.09375 6.3125 9.125L9.9375 9.96875C9.96875 9.96875 10.0312 9.96875 10.0625 9.96875C10.3125 10.0312 10.5 10.2188 10.5 10.4688V14.75C10.5 14.9062 10.5938 15 10.75 15H11.75C11.875 15 12 14.9062 12 14.75V9.75C12 9.59375 12.0312 9.46875 12.1562 9.375C12.6562 8.9375 13 8.25 13 7.5C13 7.4375 12.9688 7.375 12.9688 7.3125C12.9688 7.25 12.9688 7.21875 13 7.15625V5.5C13 5.25 13.2188 5 13.5 5H14.5C14.6562 5 14.8125 5.09375 14.9062 5.25L15.0938 5.53125C15.4062 5.96875 16 6.09375 16.4375 5.8125C16.75 5.625 16.9375 5.28125 16.9062 4.90625L16.6562 2.375C16.5938 1.59375 15.9375 1 15.1562 1H15H14.75H14ZM17.625 2H19.6875C19.8438 2 20 2.15625 20 2.3125C20 2.4375 19.9062 2.53125 19.7812 2.59375L17.75 3.25L17.9062 4.8125C17.9688 5.5625 17.625 6.28125 16.9688 6.6875C16.0625 7.25 14.875 7 14.2812 6.09375L14.2188 6H14V7.25C14 7.28125 14 7.3125 13.9688 7.34375C13.9688 7.40625 14 7.46875 14 7.5C14 8.46875 13.5938 9.34375 13 9.96875V14.75C13 15.4688 12.4375 16 11.75 16H10.75C10.0312 16 9.5 15.4688 9.5 14.75V10.875L6.71875 10.25C6.71875 10.6875 6.625 11.125 6.4375 11.5625L6.1875 12.1562C6.125 12.3125 6.09375 12.4688 6.15625 12.625L6.65625 14.4375C6.875 15.2188 6.28125 16 5.4375 16H4.40625C3.84375 16 3.34375 15.625 3.21875 15.0938L2.78125 13.5625C2.53125 12.6562 2.59375 11.6562 2.96875 10.75L3.21875 10.1562C3.21875 10.1562 3.25 10.1562 3.25 10.125C3.25 10.125 3.25 10.0938 3.21875 10.0938L2.1875 7.59375C2.0625 7.28125 2 6.9375 2 6.59375C1.40625 6.8125 1 7.375 1 8V9.5C1 9.78125 0.75 10 0.5 10C0.21875 10 0 9.78125 0 9.5V8C0 6.71875 0.96875 5.65625 2.21875 5.53125C2.625 4.625 3.53125 4 4.5625 4H6H7.25H9.5C9.75 1.75 11.6562 0 14 0H14.75H15H15.1562H17C17.25 0 17.5 0.25 17.5 0.5C17.5 0.71875 17.3438 0.90625 17.1562 1C17.375 1.28125 17.5312 1.625 17.625 2ZM15 3.5C14.7188 3.5 14.5 3.28125 14.5 3C14.5 2.75 14.7188 2.5 15 2.5C15.25 2.5 15.5 2.75 15.5 3C15.5 3.28125 15.25 3.5 15 3.5Z" fill="#0A0A0A"/>
</svg>
